<svg width="174" height="1590" viewBox="0 0 174 1590" fill="none" xmlns="http://www.w3.org/2000/svg">
<path fill-rule="evenodd" clip-rule="evenodd" d="M-92 1589.54C-64.3418 1526.79 -35.0971 1470.08 -9.62243 1424.13C221.131 1007.22 197.923 636.436 112.618 375.224C84.3892 289.527 40.0383 206.884 3.7728 147.053C-14.52 116.774 -31.0704 91.7041 -43.2435 73.9529C-49.3302 65.0773 -54.2524 58.0284 -57.7656 53.1909C-58.6253 51.8419 -59.5429 50.6754 -60.3056 49.7057C-60.5215 49.4313 -60.7249 49.1727 -60.9112 48.9301L-61.6464 47.7764L-92 0.147461V364.401C-83.8724 383.402 -76.4595 402.681 -70.1638 421.884C-8.88548 609.4 17.177 865.022 -92 1159.03V1589.54Z" fill="url(#paint0_linear_378_27980)"/>
<defs>
<linearGradient id="paint0_linear_378_27980" x1="-2736.8" y1="-847.842" x2="1056.28" y2="2462.1" gradientUnits="userSpaceOnUse">
<stop stop-color="#FFC200"/>
<stop offset="1" stop-color="#00A650"/>
</linearGradient>
</defs>
</svg>
