<svg width="46" height="40" viewBox="0 0 46 40" fill="none" xmlns="http://www.w3.org/2000/svg">
<path d="M27.2618 38.3381C26.3286 38.3479 25.3953 38.3756 24.4621 38.3577C23.0159 38.3316 21.5697 38.3088 20.1267 38.1947C18.3954 38.0578 16.6625 37.9177 14.9557 37.587C13.5763 37.3197 12.2131 36.989 10.8857 36.5001C9.55512 36.0097 8.65448 35.0891 7.96882 33.9013C7.27013 32.6906 6.88903 31.3675 6.60076 30.0151C6.32063 28.7051 6.13008 27.3837 6.0633 26.0427C5.99816 24.7245 6.00141 23.4096 6.10239 22.093C6.23594 20.374 6.54375 18.6908 7.04701 17.0435C7.45254 15.7123 8.09423 14.5114 9.02256 13.467C9.49161 12.939 10.1007 12.6344 10.7424 12.3883C11.8401 11.9696 12.9883 11.7447 14.1414 11.5459C14.4802 11.4873 14.8205 11.4319 15.1609 11.3797C15.2945 11.3585 15.3547 11.2934 15.3694 11.1532C15.5485 9.51243 16.213 8.08833 17.3107 6.86466C17.7163 6.41331 18.2456 6.1298 18.7928 5.8919C20.0387 5.35257 21.353 5.07558 22.6951 4.9273C23.6218 4.82465 24.5533 4.73829 25.4866 4.77577C27.296 4.84746 29.0859 5.04299 30.8073 5.65564C31.3969 5.86583 31.9555 6.13631 32.462 6.50619C33.0028 6.90376 33.3594 7.45776 33.7129 8.01012C34.3236 8.96169 34.6363 10.0192 34.8008 11.1255C34.8268 11.2999 34.9099 11.3585 35.0744 11.383C36.4588 11.5915 37.8382 11.8294 39.1672 12.2857C39.9066 12.5398 40.6167 12.8592 41.1509 13.4653C42.0483 14.487 42.6802 15.652 43.0841 16.9506C43.4701 18.1939 43.7437 19.4599 43.9196 20.7471C44.0368 21.6042 44.115 22.4645 44.1362 23.3314C44.159 24.278 44.1639 25.2231 44.1004 26.1681C43.9375 28.5617 43.5417 30.908 42.5874 33.1273C42.1672 34.1033 41.6053 34.9978 40.7698 35.6854C40.2014 36.1515 39.519 36.4089 38.8382 36.6533C37.3822 37.178 35.8676 37.4631 34.3448 37.7157C33.3106 37.8868 32.2666 37.9813 31.2275 38.1002C30.6771 38.1621 30.1233 38.1947 29.5696 38.2257C28.8009 38.2697 28.0305 38.299 27.2601 38.3348L27.2618 38.3381ZM17.3042 23.7371C17.2879 27.5808 20.3726 31.4832 25.1576 31.4653C29.2259 31.449 32.8301 28.2065 32.8562 23.7029C32.8822 19.4175 29.4702 15.8866 25.0061 15.9225C20.6332 15.9583 17.2749 19.5088 17.3042 23.7387V23.7371Z" fill="white"/>
<path d="M29.4395 23.724C29.3955 26.2088 27.4803 28.0077 25.0503 28.0403C22.7083 28.0729 20.723 26.028 20.7295 23.6719C20.7344 21.6172 22.4298 19.3344 25.1171 19.3426C27.5047 19.3491 29.446 21.319 29.4395 23.724Z" fill="url(#paint0_linear_378_30037)"/>
<path d="M10.9363 3.72546C11.2055 2.09151 13.5549 2.09151 13.824 3.72546L14.6239 8.58179C14.7259 9.20074 15.211 9.68585 15.8299 9.7878L20.6863 10.5877C22.3202 10.8569 22.3202 13.2062 20.6863 13.4754L15.8299 14.2753C15.211 14.3772 14.7259 14.8624 14.6239 15.4813L13.824 20.3376C13.5549 21.9716 11.2055 21.9716 10.9363 20.3376L10.1364 15.4813C10.0345 14.8624 9.54937 14.3772 8.93042 14.2753L4.0741 13.4754C2.44014 13.2062 2.44014 10.8569 4.0741 10.5877L8.93042 9.7878C9.54937 9.68585 10.0345 9.20074 10.1364 8.58179L10.9363 3.72546Z" fill="url(#paint1_linear_378_30037)"/>
<defs>
<linearGradient id="paint0_linear_378_30037" x1="30.4052" y1="45.4369" x2="16.7562" y2="43.387" gradientUnits="userSpaceOnUse">
<stop stop-color="#FFC200"/>
<stop offset="1" stop-color="#00A650"/>
</linearGradient>
<linearGradient id="paint1_linear_378_30037" x1="24.0253" y1="59.6893" x2="-5.8493" y2="55.2086" gradientUnits="userSpaceOnUse">
<stop stop-color="#FFC200"/>
<stop offset="1" stop-color="#00A650"/>
</linearGradient>
</defs>
</svg>
