<svg width="54" height="55" viewBox="0 0 54 55" fill="none" xmlns="http://www.w3.org/2000/svg">
<path d="M26.2074 33.7407L26.8906 33.1659C28.9213 31.4576 30.3776 29.1662 31.0619 26.6023C31.7463 24.0384 31.6258 21.3261 30.7166 18.8331C29.8075 16.3401 28.1537 14.1869 25.9794 12.6655C23.8052 11.1441 21.2158 10.3281 18.5621 10.3281C15.9085 10.3281 13.319 11.1441 11.1448 12.6655C8.9706 14.1869 7.31681 16.3401 6.40764 18.8331C5.49848 21.3261 5.37792 24.0384 6.06231 26.6023C6.74671 29.1662 8.20295 31.4576 10.2336 33.1659L10.9169 33.7407L10.1034 34.1088C6.7586 35.6224 3.88031 38.0044 1.76777 41.0071L26.2074 33.7407ZM26.2074 33.7407L27.0208 34.1088M26.2074 33.7407L27.0208 34.1088M27.0208 34.1088C30.3658 35.6225 33.2442 38.0046 35.3568 41.0075L35.3648 41.0189L35.3734 41.0299C35.5375 41.2402 35.6572 41.4816 35.7252 41.7395C35.7932 41.9974 35.8081 42.2664 35.7689 42.5302C35.7298 42.794 35.6374 43.0472 35.4975 43.2742C35.3576 43.5013 35.173 43.6975 34.9549 43.8511C34.7368 44.0046 34.4898 44.1123 34.2289 44.1675C33.9679 44.2227 33.6985 44.2242 33.4369 44.1721C33.1753 44.12 32.9271 44.0153 32.7072 43.8644C32.4873 43.7134 32.3004 43.5194 32.1578 43.294L32.1506 43.2826L32.1428 43.2715C30.612 41.0912 28.5787 39.3115 26.2149 38.0829C23.8511 36.8543 21.2262 36.2129 18.5621 36.2129C15.8981 36.2129 13.2732 36.8543 10.9094 38.0829C8.54554 39.3115 6.51227 41.0912 4.98145 43.2715L4.9802 43.2733C4.80025 43.5318 4.56031 43.7427 4.28096 43.8881C4.0016 44.0335 3.69116 44.1089 3.37625 44.108L3.3728 44.108C2.96892 44.1093 2.57483 43.9837 2.24625 43.7488L2.24355 43.7469M27.0208 34.1088L2.24355 43.7469M2.24355 43.7469C1.81766 43.4463 1.52839 42.989 1.4392 42.4754C1.35001 41.9618 1.46815 41.4338 1.76772 41.0072L2.24355 43.7469ZM35.7541 14.2815C34.9313 14.28 34.1123 14.3937 33.3211 14.6195L33.3211 14.6194L33.3146 14.6213C33.0644 14.696 32.8018 14.7201 32.5422 14.6923C32.2825 14.6645 32.031 14.5853 31.8023 14.4593C31.5736 14.3334 31.3722 14.1632 31.2098 13.9587C31.0475 13.7541 30.9275 13.5194 30.8567 13.268C30.786 13.0166 30.766 12.7537 30.7978 12.4945C30.8297 12.2354 30.9128 11.9851 31.0423 11.7584C31.1718 11.5316 31.3451 11.3329 31.5521 11.1738C31.7592 11.0147 31.9958 10.8983 32.2482 10.8315L32.2482 10.8316L32.2583 10.8287C33.3948 10.5052 34.571 10.342 35.7526 10.344L35.7552 10.344C38.4104 10.3363 41.0035 11.147 43.1814 12.666C45.3593 14.1849 47.0162 16.3381 47.9264 18.8324C48.8367 21.3268 48.9561 24.041 48.2683 26.6057C47.5806 29.1703 46.1192 31.4607 44.0831 33.165L43.3966 33.7396L44.2123 34.1088C47.5572 35.6225 50.4356 38.0046 52.5482 41.0075L52.5506 41.011C52.7008 41.2209 52.8076 41.4587 52.8651 41.7103C52.9225 41.962 52.9293 42.2226 52.8852 42.4769C52.841 42.7312 52.7467 42.9742 52.6078 43.1918C52.4689 43.4093 52.2881 43.5971 52.076 43.7442L52.076 43.7442L52.0694 43.7488C51.7412 43.9834 51.3477 44.1091 50.9443 44.108C50.6284 44.1062 50.3174 44.0292 50.0372 43.8834C49.7571 43.7376 49.5157 43.5273 49.333 43.2698C47.7991 41.0939 45.7654 39.3179 43.4027 38.0909C41.0398 36.8639 38.4168 36.2219 35.7542 36.219H35.7535C35.2314 36.219 34.7306 36.0115 34.3614 35.6423C33.9922 35.2731 33.7848 34.7724 33.7848 34.2502C33.7848 33.7281 33.9922 33.2273 34.3614 32.8581C34.7306 32.4889 35.2314 32.2815 35.7535 32.2815C38.1405 32.2815 40.4297 31.3333 42.1175 29.6454C43.8053 27.9576 44.7535 25.6684 44.7535 23.2815C44.7535 20.8945 43.8053 18.6053 42.1175 16.9175C40.4298 15.2298 38.1408 14.2816 35.7541 14.2815ZM35.7541 14.2815C35.7542 14.2815 35.7544 14.2815 35.7546 14.2815L35.7535 14.844V14.2815C35.7537 14.2815 35.7539 14.2815 35.7541 14.2815ZM11.0789 18.2813C10.09 19.7614 9.56213 21.5014 9.56213 23.2815C9.56213 25.6684 10.5103 27.9576 12.1982 29.6454C13.886 31.3333 16.1752 32.2815 18.5621 32.2815C20.3422 32.2815 22.0822 31.7536 23.5623 30.7647C25.0423 29.7758 26.1959 28.3702 26.877 26.7256C27.5582 25.0811 27.7365 23.2715 27.3892 21.5257C27.0419 19.7798 26.1848 18.1762 24.9261 16.9175C23.6674 15.6588 22.0638 14.8017 20.3179 14.4544C18.5721 14.1071 16.7625 14.2854 15.118 14.9665C13.4734 15.6477 12.0678 16.8013 11.0789 18.2813Z" fill="url(#paint0_linear_378_30100)" stroke="url(#paint1_linear_378_30100)" stroke-width="1.125"/>
<defs>
<linearGradient id="paint0_linear_378_30100" x1="59.3116" y1="114.786" x2="-20.9405" y2="96.6913" gradientUnits="userSpaceOnUse">
<stop stop-color="#FFC200"/>
<stop offset="1" stop-color="#00A650"/>
</linearGradient>
<linearGradient id="paint1_linear_378_30100" x1="59.3116" y1="114.786" x2="-20.9405" y2="96.6913" gradientUnits="userSpaceOnUse">
<stop stop-color="#FFC200"/>
<stop offset="1" stop-color="#00A650"/>
</linearGradient>
</defs>
</svg>
