<svg width="45" height="41" viewBox="0 0 45 41" fill="none" xmlns="http://www.w3.org/2000/svg">
<path d="M15.9171 35.5606C15.832 35.5556 15.791 35.4833 15.7403 35.4295C14.0501 33.6969 12.3616 31.9643 10.6731 30.2334C9.98029 29.5226 9.28589 28.8134 8.58985 28.1059C8.50632 28.0219 8.46046 27.9597 8.56692 27.8505C10.221 26.1616 11.8735 24.4693 13.5244 22.777C16.9866 19.2312 20.4488 15.6853 23.9093 12.1361C25.7666 10.2304 27.6205 8.32133 29.4695 6.40892C29.5792 6.29464 29.6431 6.31649 29.7332 6.41228C29.8986 6.58873 30.0689 6.75846 30.2376 6.93155C32.442 9.19183 34.6464 11.4521 36.8492 13.7124C37.067 13.9359 37.0687 13.9376 36.8492 14.1628C35.4014 15.6483 33.952 17.1339 32.5026 18.6195C28.8079 22.4107 25.1131 26.2002 21.4183 29.9914C19.9509 31.4971 18.4835 33.0029 17.0144 34.5069C16.6967 34.8329 16.3708 35.1489 16.0482 35.4699C16.0088 35.5085 15.9745 35.5539 15.9155 35.5606H15.9171ZM14.53 30.3426C14.6692 30.3494 14.8657 30.2603 15.0344 30.0872C15.4766 29.6335 15.927 29.1865 16.3692 28.7327C21.3741 23.6005 26.3774 18.4682 31.3791 13.3343C31.4938 13.2166 31.6068 13.094 31.7099 12.9646C31.9753 12.6318 31.9589 12.1848 31.6756 11.8773C31.384 11.5597 30.9664 11.5076 30.6225 11.7512C30.5226 11.8218 30.4341 11.9109 30.3473 12C24.9002 17.5859 19.4547 23.1736 14.0108 28.763C13.9289 28.847 13.8454 28.931 13.7799 29.0268C13.585 29.3075 13.5588 29.6116 13.7094 29.9158C13.8552 30.2132 14.1123 30.3359 14.53 30.3426Z" fill="white"/>
<path d="M12.8088 14.9206C12.5385 14.9038 12.3731 15.0214 12.2257 15.1727C11.7295 15.6802 11.2316 16.1877 10.7436 16.7036C10.6207 16.833 10.5421 16.8465 10.4144 16.7103C9.98037 16.2465 9.53818 15.7928 9.09599 15.339C9.00264 15.2449 9.02393 15.1895 9.11073 15.1021C9.62171 14.5895 10.1294 14.0736 10.6322 13.5527C10.9614 13.2115 10.9663 12.6654 10.6551 12.3461C10.3276 12.01 9.8297 11.9948 9.48086 12.3394C8.97643 12.8385 8.48347 13.3493 7.99542 13.8652C7.86768 13.9997 7.78906 14.0199 7.65313 13.8753C7.23878 13.4317 6.81297 12.9998 6.38551 12.5696C6.27415 12.457 6.26268 12.3814 6.38879 12.2671C6.92106 11.7781 7.396 11.2285 7.89552 10.7042C8.22962 10.3547 8.22143 9.83372 7.91353 9.51611C7.59745 9.19009 7.08975 9.18505 6.7409 9.53291C6.24303 10.0287 5.75826 10.5379 5.26857 11.0437C5.08186 11.2369 5.08514 11.2386 4.89189 11.0386C4.4022 10.5345 3.9076 10.0337 3.41955 9.52787C2.90202 8.99179 2.89547 8.4742 3.41464 7.94148C5.73041 5.55852 8.0511 3.18061 10.3685 0.801018C10.5126 0.653134 10.6535 0.500208 10.7976 0.352324C11.2529 -0.111495 11.7999 -0.118217 12.2601 0.3372C12.514 0.589275 12.7629 0.848073 13.0118 1.10519C15.9418 4.11161 18.8717 7.11971 21.8 10.1261C22.0358 10.3681 22.2619 10.6202 22.501 10.8588C22.6353 10.9933 22.6222 11.0857 22.4911 11.2201C19.6726 14.1056 16.8589 16.9927 14.0453 19.8815C13.7783 20.1554 13.7767 20.1571 13.5081 19.8798C12.966 19.3202 12.4288 18.7572 11.8834 18.1993C11.777 18.09 11.7753 18.0195 11.8867 17.9085C12.3502 17.4464 12.8055 16.9759 13.2641 16.5087C13.3034 16.47 13.3394 16.428 13.3754 16.3877C13.6211 16.1087 13.7406 15.7928 13.5834 15.4281C13.4278 15.0702 13.1396 14.9156 12.8104 14.9223L12.8088 14.9206Z" fill="url(#paint0_linear_378_30084)"/>
<path d="M34.3729 40.9987C34.2173 41.0021 33.9978 40.8962 33.8177 40.7131C33.4066 40.2963 33.0037 39.8694 32.5943 39.451C32.4846 39.3384 32.5337 39.2628 32.6221 39.172C33.0643 38.7267 33.5016 38.278 33.9405 37.8293C34.0175 37.7503 34.0945 37.6713 34.1632 37.584C34.4695 37.1974 34.4515 36.7319 34.1239 36.416C33.7931 36.0967 33.3034 36.09 32.9628 36.4294C32.4551 36.9353 31.9572 37.4512 31.4659 37.9738C31.3496 38.0982 31.2775 38.1167 31.1547 37.9873C30.7174 37.5285 30.2736 37.0748 29.8248 36.6261C29.7102 36.5101 29.7561 36.4479 29.8461 36.3555C30.3538 35.8413 30.8648 35.327 31.3627 34.801C31.8229 34.3154 31.6427 33.5709 31.0302 33.3978C30.7469 33.3172 30.4849 33.3844 30.2736 33.5911C29.9182 33.9373 29.5743 34.2952 29.2254 34.6481C29.0371 34.8397 28.8471 35.0313 28.662 35.2245C28.5834 35.3069 28.5261 35.3052 28.4442 35.2178C28.0102 34.7557 27.5729 34.2952 27.1291 33.8432C27.0145 33.7255 27.0145 33.6566 27.1291 33.5407C27.6204 33.0466 28.1052 32.5475 28.5851 32.0433C28.8504 31.7627 28.9683 31.4367 28.8013 31.0502C28.5883 30.5544 27.9873 30.3864 27.5697 30.7191C27.1979 31.0165 26.8916 31.3829 26.5657 31.7308C26.3626 31.9459 26.1563 32.161 25.9581 32.3794C25.8615 32.487 25.7862 32.4769 25.6879 32.3761C25.0131 31.6753 24.3351 30.9796 23.6587 30.2822C23.5916 30.2133 23.5293 30.1511 23.6342 30.0603C24.0043 29.7394 24.3318 29.3764 24.6741 29.0268C27.2176 26.4237 29.761 23.819 32.2978 21.2091C32.4452 21.0579 32.5189 21.1251 32.6254 21.2343C33.9061 22.5468 35.1885 23.8576 36.4676 25.1701C38.4443 27.2001 40.4194 29.2319 42.3929 31.2636C42.5174 31.3913 42.6402 31.5241 42.75 31.6652C43.0513 32.0618 43.048 32.524 42.7385 32.9138C42.6009 33.0869 42.4503 33.2499 42.2979 33.4079C40.0067 35.7673 37.7139 38.1251 35.4243 40.4828C35.1606 40.7551 34.8855 40.9987 34.3762 40.9971L34.3729 40.9987Z" fill="url(#paint1_linear_378_30084)"/>
<path d="M41.5625 8.48275C41.5511 8.9096 41.3005 9.55995 40.7813 10.096C39.9805 10.9228 39.1747 11.7463 38.3771 12.5748C38.2543 12.7025 38.1757 12.7059 38.0463 12.5731C35.6634 10.1212 33.2755 7.67275 30.8844 5.22762C30.7878 5.13015 30.7878 5.07133 30.8811 4.97554C31.7098 4.12689 32.5238 3.26479 33.3623 2.42622C34.3744 1.41624 36.1842 1.43808 37.1881 2.45311C38.346 3.62442 39.4973 4.80245 40.6323 5.99729C41.271 6.67117 41.5625 7.34505 41.5609 8.48275H41.5625Z" fill="white"/>
<path d="M6.31555 37.9284C6.17307 37.9217 6.20746 37.8192 6.22384 37.7318C6.37779 36.9454 6.53501 36.1606 6.68568 35.3758C7.02306 33.6247 7.35716 31.8736 7.69781 30.1242C7.72238 29.9948 7.69945 29.7982 7.83211 29.7578C7.94511 29.7226 8.00571 29.9074 8.09087 29.9931C10.0775 32.0299 12.0624 34.07 14.0457 36.1101C14.0899 36.1555 14.1833 36.1891 14.1505 36.2698C14.1243 36.337 14.0375 36.337 13.972 36.3505C12.2802 36.6966 10.5884 37.0428 8.89501 37.3907C8.06958 37.5604 7.24252 37.7318 6.41709 37.9032C6.38434 37.91 6.35158 37.92 6.31391 37.9284H6.31555Z" fill="white"/>
<defs>
<linearGradient id="paint0_linear_378_30084" x1="24.7652" y1="60.2619" x2="-5.93423" y2="55.7767" gradientUnits="userSpaceOnUse">
<stop stop-color="#FFC200"/>
<stop offset="1" stop-color="#00A650"/>
</linearGradient>
<linearGradient id="paint1_linear_378_30084" x1="45.1238" y1="80.7543" x2="14.6965" y2="76.3015" gradientUnits="userSpaceOnUse">
<stop stop-color="#FFC200"/>
<stop offset="1" stop-color="#00A650"/>
</linearGradient>
</defs>
</svg>
