<svg width="47" height="46" viewBox="0 0 47 46" fill="none" xmlns="http://www.w3.org/2000/svg">
<path fill-rule="evenodd" clip-rule="evenodd" d="M6 16.5248L6.06766 16.9355C6.52106 19.6882 10.4789 19.6882 10.9323 16.9355L11.2156 15.2156L12.9355 14.9323C14.977 14.5961 15.5044 12.3323 14.5178 11H40C41.1046 11 42 11.8954 42 13V33C42 34.1046 41.1046 35 40 35H8C6.89543 35 6 34.1046 6 33V16.5248Z" fill="white"/>
<path fill-rule="evenodd" clip-rule="evenodd" d="M8 18.9523C9.24717 19.1934 10.6712 18.5211 10.9323 16.9355L11.2156 15.2156L12.9355 14.9323C14.1026 14.7401 14.7748 13.9179 14.9523 13H39.6C39.8209 13 40 13.1791 40 13.4V32.6C40 32.8209 39.8209 33 39.6 33H8.4C8.17909 33 8 32.8209 8 32.6V18.9523Z" fill="url(#paint0_linear_378_29984)"/>
<path d="M8.17413 26.0809L17.8861 19.4358C18.0326 19.3356 18.2278 19.3439 18.3652 19.4564L28.4507 27.7082L34.4882 24.6894C34.6008 24.6331 34.7334 24.6331 34.846 24.6894L40.0004 27.7082V32.9999H35.7338L8 33V26.411C8 26.2789 8.06516 26.1554 8.17413 26.0809Z" fill="white"/>
<circle cx="29.3331" cy="18.7332" r="4.26667" fill="white"/>
<path d="M7.81834 8.57856C7.94541 7.80715 9.05459 7.80715 9.18166 8.57856L9.55931 10.8713C9.60744 11.1635 9.83647 11.3926 10.1287 11.4407L12.4214 11.8183C13.1929 11.9454 13.1929 13.0546 12.4214 13.1817L10.1287 13.5593C9.83647 13.6074 9.60744 13.8365 9.55931 14.1287L9.18166 16.4214C9.05459 17.1929 7.94541 17.1929 7.81834 16.4214L7.44069 14.1287C7.39256 13.8365 7.16353 13.6074 6.87131 13.5593L4.57856 13.1817C3.80715 13.0546 3.80715 11.9454 4.57856 11.8183L6.87131 11.4407C7.16353 11.3926 7.39256 11.1635 7.44069 10.8713L7.81834 8.57856Z" fill="white"/>
<path d="M2.96982 3.44999C3.06865 2.85 3.93135 2.85 4.03018 3.44999L4.32391 5.23324C4.36134 5.46052 4.53948 5.63866 4.76676 5.67609L6.55001 5.96982C7.15 6.06865 7.15 6.93135 6.55001 7.03018L4.76676 7.32391C4.53948 7.36134 4.36134 7.53948 4.32391 7.76676L4.03018 9.55001C3.93135 10.15 3.06865 10.15 2.96982 9.55001L2.67609 7.76676C2.63866 7.53948 2.46052 7.36134 2.23324 7.32391L0.449993 7.03018C-0.149998 6.93135 -0.149998 6.06865 0.449993 5.96982L2.23324 5.67609C2.46052 5.63866 2.63866 5.46052 2.67609 5.23324L2.96982 3.44999Z" fill="white"/>
<defs>
<linearGradient id="paint0_linear_378_29984" x1="43.548" y1="73" x2="-4.9367" y2="61.3651" gradientUnits="userSpaceOnUse">
<stop stop-color="#FFC200"/>
<stop offset="1" stop-color="#00A650"/>
</linearGradient>
</defs>
</svg>
