<svg width="46" height="46" viewBox="0 0 46 46" fill="none" xmlns="http://www.w3.org/2000/svg">
<path d="M19.3999 39.9999H13.9999C13.0058 39.9999 12.1999 39.194 12.1999 38.1999V35.5997L6.20923 26.6137C5.42075 25.431 5 24.0413 5 22.6199V14.8999C5 13.4088 6.20882 12.2 7.69998 12.2C9.19113 12.2 10.4 13.4088 10.4 14.8999V21.1999L13.7677 26.2515C13.9128 26.4691 14.157 26.5998 14.4185 26.5998C15.0265 26.5998 15.402 25.9366 15.0892 25.4153L13.3844 22.5739C13.2172 22.2953 13.2611 21.9387 13.4908 21.709C14.7095 20.4902 16.7251 20.6335 17.7592 22.0123L19.9888 24.9851C20.7749 26.0332 21.1999 27.308 21.1999 28.6182V38.1999C21.1999 39.194 20.394 39.9999 19.3999 39.9999Z" fill="white"/>
<path d="M26.5998 39.9999H31.9997C32.9938 39.9999 33.7997 39.194 33.7997 38.1999V35.5997L39.7904 26.6137C40.5789 25.431 40.9997 24.0413 40.9997 22.6199V14.8999C40.9997 13.4088 39.7908 12.2 38.2997 12.2C36.8085 12.2 35.5997 13.4088 35.5997 14.8999V21.1999L32.2319 26.2515C32.0869 26.4691 31.8427 26.5998 31.5812 26.5998C30.9732 26.5998 30.5977 25.9366 30.9105 25.4153L32.6153 22.5739C32.7825 22.2953 32.7386 21.9387 32.5088 21.709C31.2901 20.4902 29.2746 20.6335 28.2404 22.0123L26.0108 24.9851C25.2247 26.0332 24.7998 27.308 24.7998 28.6182V38.1999C24.7998 39.194 25.6057 39.9999 26.5998 39.9999Z" fill="white"/>
<path d="M17.3912 14.4933C19.0166 15.8113 21.5075 17.7471 22.9997 18.4999C24.492 17.7471 26.9828 15.8113 28.6083 14.4933C29.6274 13.6671 30.1997 12.4168 30.1997 11.1012V10.7166C30.1997 9.11515 29.2292 7.67505 27.7491 7.08028C26.2977 6.49703 24.6398 6.84119 23.5374 7.95461L22.9997 8.49762L22.4621 7.95461C21.3596 6.84119 19.7018 6.49703 18.2504 7.08028C16.7703 7.67505 15.7998 9.11515 15.7998 10.7166V11.1012C15.7998 12.4168 16.3721 13.6671 17.3912 14.4933Z" fill="url(#paint0_linear_378_29959)"/>
<defs>
<linearGradient id="paint0_linear_378_29959" x1="31.7962" y1="41.8997" x2="9.48227" y2="37.7807" gradientUnits="userSpaceOnUse">
<stop stop-color="#FFC200"/>
<stop offset="1" stop-color="#00A650"/>
</linearGradient>
</defs>
</svg>
