<svg width="46" height="46" viewBox="0 0 46 46" fill="none" xmlns="http://www.w3.org/2000/svg">
<path d="M21.4584 36.6809C22.2687 37.6064 23.7313 37.6064 24.5417 36.6809L39.2723 19.8567C40.4564 18.5043 40.5771 16.5461 39.5679 15.0641L37.139 11.4975C36.2776 10.2327 35.7536 9.58333 34.0961 9.58333H11.9037C10.2859 9.58333 9.73987 10.2068 8.89885 11.4418L6.43206 15.0641C5.42286 16.5461 5.54365 18.5043 6.72768 19.8566L21.4584 36.6809Z" fill="white"/>
<path fill-rule="evenodd" clip-rule="evenodd" d="M28.2464 25.5788C28.8437 26.1018 29.7519 26.0416 30.2749 25.4442L35.7567 19.1834C36.6272 18.1891 36.7188 16.7385 35.9733 15.6438L35.958 15.6214L34.7733 14.0156C34.3019 13.3767 33.4019 13.241 32.7631 13.7123C32.1243 14.1837 31.9885 15.0836 32.4598 15.7225L33.6007 17.2688C33.6006 17.2685 33.6009 17.2693 33.6007 17.2688C33.601 17.27 33.6016 17.2726 33.6015 17.2743C33.6014 17.2759 33.601 17.2777 33.6002 17.2796C33.5996 17.2812 33.5981 17.2844 33.5936 17.2895L28.1119 23.5503C27.5889 24.1477 27.6491 25.0558 28.2464 25.5788Z" fill="#080808"/>
<path d="M14.4713 4.67318C14.1039 2.44227 10.8961 2.44227 10.5287 4.67318L9.98343 7.98343L6.67318 8.52868C4.44227 8.89615 4.44227 12.1039 6.67318 12.4713L9.98343 13.0166L10.5287 16.3268C10.8961 18.5577 14.1039 18.5577 14.4713 16.3268L15.0166 13.0166L18.3268 12.4713C20.5577 12.1039 20.5577 8.89615 18.3268 8.52868L15.0166 7.98343L14.4713 4.67318Z" fill="url(#paint0_linear_378_30008)" stroke="#101010" stroke-width="2"/>
<defs>
<linearGradient id="paint0_linear_378_30008" x1="20.4414" y1="43" x2="0.0684781" y2="39.9444" gradientUnits="userSpaceOnUse">
<stop stop-color="#FFC200"/>
<stop offset="1" stop-color="#00A650"/>
</linearGradient>
</defs>
</svg>
