<svg width="31" height="31" viewBox="0 0 31 31" fill="none" xmlns="http://www.w3.org/2000/svg">
<path d="M15.6036 8.64078C11.8772 8.64078 8.87139 11.6455 8.87139 15.3707C8.87139 19.0958 11.8772 22.1005 15.6036 22.1005C19.3301 22.1005 22.3358 19.0958 22.3358 15.3707C22.3358 11.6455 19.3301 8.64078 15.6036 8.64078ZM15.6036 19.746C13.1955 19.746 11.2268 17.7838 11.2268 15.3707C11.2268 12.9575 13.1896 10.9954 15.6036 10.9954C18.0176 10.9954 19.9804 12.9575 19.9804 15.3707C19.9804 17.7838 18.0117 19.746 15.6036 19.746ZM24.1815 8.36549C24.1815 9.23821 23.4784 9.93521 22.6112 9.93521C21.7382 9.93521 21.0409 9.23235 21.0409 8.36549C21.0409 7.49863 21.744 6.79577 22.6112 6.79577C23.4784 6.79577 24.1815 7.49863 24.1815 8.36549ZM28.6403 9.95864C28.5407 7.85592 28.0603 5.99334 26.5193 4.45876C24.9842 2.92418 23.121 2.4439 21.0175 2.33847C18.8496 2.21547 12.3517 2.21547 10.1838 2.33847C8.08625 2.43804 6.22303 2.91833 4.68206 4.4529C3.14109 5.98748 2.6665 7.85006 2.56103 9.95278C2.43799 12.1199 2.43799 18.6155 2.56103 20.7827C2.66064 22.8854 3.14109 24.748 4.68206 26.2826C6.22303 27.8171 8.0804 28.2974 10.1838 28.4029C12.3517 28.5259 18.8496 28.5259 21.0175 28.4029C23.121 28.3033 24.9842 27.823 26.5193 26.2826C28.0544 24.748 28.5348 22.8854 28.6403 20.7827C28.7634 18.6155 28.7634 12.1258 28.6403 9.95864ZM25.8396 23.108C25.3826 24.256 24.4979 25.1404 23.3436 25.6031C21.6151 26.2884 17.5137 26.1303 15.6036 26.1303C13.6935 26.1303 9.58621 26.2826 7.8636 25.6031C6.7152 25.1463 5.83046 24.2618 5.36759 23.108C4.68206 21.3801 4.84026 17.2801 4.84026 15.3707C4.84026 13.4612 4.68792 9.35535 5.36759 7.63335C5.8246 6.48534 6.70934 5.60091 7.8636 5.13819C9.59207 4.4529 13.6935 4.61105 15.6036 4.61105C17.5137 4.61105 21.621 4.45876 23.3436 5.13819C24.492 5.59505 25.3767 6.47948 25.8396 7.63335C26.5251 9.36121 26.3669 13.4612 26.3669 15.3707C26.3669 17.2801 26.5251 21.386 25.8396 23.108Z" fill="white"/>
</svg>
