<svg width="160" height="66" viewBox="0 0 160 66" fill="none" xmlns="http://www.w3.org/2000/svg">
<path d="M76.2417 30.3113H73.256C73.2066 30.3113 73.165 30.2697 73.165 30.2183V28.1132C73.165 28.0638 73.2066 28.0222 73.256 28.0222H76.2417C77.0761 28.0222 77.7503 27.3456 77.7503 26.5107V16.9074C77.7503 16.858 77.7918 16.8164 77.8413 16.8164H79.9431C79.9925 16.8164 80.0341 16.858 80.0341 16.9074V26.5107C80.0262 28.6157 78.3336 30.3113 76.2397 30.3113H76.2417Z" fill="white"/>
<path d="M85.8734 16.8164H88.8413C88.9085 16.8164 88.9658 16.858 88.9836 16.9173L93.5274 30.1035C93.561 30.2044 93.4859 30.3033 93.385 30.3033H91.0341C90.9668 30.3033 90.9095 30.2618 90.8917 30.1945L89.9999 27.5058C89.9822 27.4465 89.9248 27.397 89.8576 27.397H84.8709C84.8037 27.397 84.7463 27.4386 84.7286 27.4979L83.819 30.1866C83.7933 30.246 83.7439 30.2875 83.6766 30.2875H81.3415C81.2327 30.2875 81.1655 30.1866 81.1991 30.0877L85.7429 16.9015C85.7429 16.8599 85.8002 16.8184 85.8675 16.8184L85.8734 16.8164ZM89.1833 25.0427L87.4987 19.9898C87.4493 19.8474 87.2575 19.8474 87.2061 19.9898L85.5214 25.0427C85.4878 25.1436 85.563 25.2425 85.6638 25.2425H89.041C89.1497 25.2425 89.2169 25.1416 89.1833 25.0427Z" fill="white"/>
<path d="M95.2451 16.8164H97.3963C97.4794 16.8164 97.5466 16.8837 97.5466 16.9668V22.3936C97.5466 22.536 97.7226 22.6013 97.8135 22.4945L102.567 16.8738C102.593 16.8401 102.642 16.8243 102.684 16.8243H105.377C105.509 16.8243 105.576 16.9747 105.493 17.0756L101.108 22.2868C101.066 22.3362 101.058 22.4114 101.092 22.4628L105.721 30.0877C105.778 30.1886 105.713 30.3211 105.588 30.3211H103.053C103.004 30.3211 102.952 30.2954 102.921 30.246L99.4606 24.56C99.4033 24.469 99.2767 24.4591 99.2095 24.5441L97.5743 26.4988C97.5486 26.5245 97.5407 26.5582 97.5407 26.5997V30.1747C97.5407 30.2578 97.4734 30.3251 97.3904 30.3251H95.2391C95.1561 30.3251 95.0889 30.2578 95.0889 30.1747V16.9806C95.0968 16.8896 95.164 16.8223 95.247 16.8223L95.2451 16.8164Z" fill="white"/>
<path d="M111.03 16.8164H113.998C114.065 16.8164 114.122 16.858 114.14 16.9173L118.684 30.1114C118.717 30.2123 118.642 30.3113 118.541 30.3113H116.181C116.113 30.3113 116.056 30.2697 116.038 30.2024L115.146 27.5138C115.131 27.4544 115.071 27.4049 115.004 27.4049H110.017C109.95 27.4049 109.893 27.4465 109.875 27.5058L108.965 30.1945C108.94 30.2519 108.89 30.2954 108.823 30.2954H106.488C106.379 30.2954 106.312 30.1945 106.346 30.0956L110.889 16.9094C110.897 16.8599 110.957 16.8184 111.022 16.8184L111.03 16.8164ZM114.35 25.0427L112.665 19.9898C112.616 19.8474 112.424 19.8474 112.372 19.9898L110.688 25.0427C110.654 25.1436 110.729 25.2425 110.83 25.2425H114.207C114.308 25.2425 114.373 25.1416 114.35 25.0427Z" fill="white"/>
<path d="M120.252 16.9746C120.252 16.8915 120.319 16.8242 120.402 16.8242H125.264C126.182 16.8242 126.99 16.9904 127.698 17.3248C128.406 17.6591 128.958 18.1339 129.349 18.7611C129.751 19.3883 129.95 20.1638 129.95 21.0818C129.95 21.9998 129.733 22.803 129.292 23.4539C128.883 24.0633 128.341 24.5223 127.657 24.8408C127.574 24.8744 127.54 24.9734 127.59 25.0485L130.474 30.0915C130.532 30.1924 130.457 30.3171 130.34 30.3171H127.906C127.847 30.3171 127.797 30.2835 127.773 30.2419L125.073 25.4145C125.047 25.3651 124.997 25.3394 124.938 25.3394H122.862C122.779 25.3394 122.712 25.4066 122.712 25.4897V30.1667C122.712 30.2498 122.644 30.3171 122.561 30.3171H120.41C120.327 30.3171 120.26 30.2498 120.26 30.1667V16.9726H120.252V16.9746ZM125.296 23.1532C125.954 23.1532 126.488 22.9613 126.888 22.5854C127.287 22.2016 127.489 21.701 127.489 21.0739C127.489 20.4467 127.289 19.9303 126.888 19.5544C126.488 19.1785 125.962 18.9946 125.296 18.9946H122.862C122.779 18.9946 122.712 19.0618 122.712 19.1449V23.0028C122.712 23.0859 122.779 23.1532 122.862 23.1532H125.296Z" fill="white"/>
<path d="M134.087 18.9965H130.901C130.818 18.9965 130.751 18.9292 130.751 18.8461V16.9765C130.751 16.8934 130.818 16.8262 130.901 16.8262H139.999C140.082 16.8262 140.149 16.8934 140.149 16.9765V18.8461C140.149 18.9292 140.082 18.9965 139.999 18.9965H136.863C136.78 18.9965 136.712 19.0638 136.712 19.1469V30.1608C136.712 30.2439 136.645 30.3111 136.562 30.3111H134.385C134.302 30.3111 134.235 30.2439 134.235 30.1608V19.1469C134.235 19.0638 134.168 18.9965 134.085 18.9965H134.087Z" fill="white"/>
<path d="M144.402 16.8164H147.37C147.437 16.8164 147.494 16.858 147.512 16.9173L152.056 30.1035C152.089 30.2044 152.014 30.3033 151.915 30.3033H149.562C149.495 30.3033 149.438 30.2618 149.42 30.1945L148.528 27.5058C148.51 27.4465 148.453 27.397 148.386 27.397H143.399C143.332 27.397 143.275 27.4386 143.257 27.4979L142.347 30.1866C142.322 30.246 142.272 30.2875 142.205 30.2875H139.87C139.761 30.2875 139.694 30.1866 139.727 30.0877L144.271 16.9015C144.271 16.8599 144.331 16.8184 144.396 16.8184L144.402 16.8164ZM147.712 25.0427L146.027 19.9898C145.978 19.8474 145.786 19.8474 145.734 19.9898L144.05 25.0427C144.016 25.1436 144.091 25.2425 144.192 25.2425H147.569C147.678 25.2425 147.745 25.1416 147.712 25.0427Z" fill="white"/>
<path d="M77.0326 47.5378C76.1745 47.1876 75.431 46.7029 74.7884 46.0679C74.1458 45.4328 73.6554 44.6988 73.2956 43.8461C72.9377 42.9954 72.7617 42.0754 72.7617 41.0822C72.7617 40.0891 72.9377 39.1533 73.2956 38.3104C73.6535 37.4676 74.1458 36.7317 74.7805 36.1065C75.4152 35.4793 76.1567 34.9966 77.0148 34.6444C77.873 34.2942 78.8003 34.1182 79.8008 34.1182C80.8013 34.1182 81.7266 34.2942 82.5868 34.6444C83.4449 34.9946 84.1883 35.4793 84.829 36.1065C85.4716 36.7336 85.9639 37.4597 86.3218 38.3104C86.6797 39.1533 86.8557 40.0811 86.8557 41.0822C86.8557 42.0833 86.6817 42.9954 86.3218 43.8461C85.9639 44.6988 85.4716 45.4407 84.829 46.0679C84.1864 46.695 83.4449 47.1857 82.5868 47.5378C81.7286 47.888 80.8033 48.0641 79.8008 48.0641C78.7983 48.0641 77.8828 47.888 77.0326 47.5378ZM82.1439 45.1993C82.828 44.7898 83.3698 44.2299 83.7692 43.5117C84.1686 42.8015 84.3703 41.9923 84.3703 41.0822C84.3703 40.1721 84.1705 39.3709 83.7692 38.6606C83.3698 37.9504 82.826 37.4004 82.1439 36.9829C81.4597 36.5734 80.6767 36.3657 79.7929 36.3657C78.909 36.3657 78.1419 36.5734 77.4498 36.9829C76.7578 37.3925 76.2081 37.9524 75.8146 38.6606C75.4152 39.3709 75.2135 40.1721 75.2135 41.0822C75.2135 41.9923 75.4132 42.7936 75.8146 43.5117C76.216 44.222 76.7578 44.7898 77.4498 45.1993C78.1419 45.6089 78.9268 45.8166 79.7929 45.8166C80.6589 45.8166 81.4597 45.6168 82.1439 45.1993Z" fill="white"/>
<path d="M89.1498 34.3536H91.392C91.4493 34.3536 91.5007 34.4031 91.5007 34.4624V40.0495C91.5007 40.1504 91.6253 40.1998 91.6925 40.1167L96.5289 34.3892C96.5447 34.3635 96.5784 34.3477 96.612 34.3477H99.4217C99.5126 34.3477 99.564 34.4565 99.5047 34.5237L95.044 39.8259C95.0104 39.8596 95.0104 39.909 95.0361 39.9506L99.7222 47.6664C99.7637 47.7416 99.7143 47.8346 99.6313 47.8346H96.9877C96.9461 47.8346 96.9125 47.8188 96.8967 47.7851L93.387 42.0239C93.3455 41.9567 93.2625 41.9567 93.2111 42.0061L91.5264 44.0182C91.5106 44.036 91.5007 44.0597 91.5007 44.0855V47.7258C91.5007 47.7831 91.4513 47.8346 91.392 47.8346H89.1498C89.0904 47.8346 89.041 47.7851 89.041 47.7258V34.4486C89.041 34.407 89.0904 34.3575 89.1498 34.3575V34.3536Z" fill="white"/>
<path d="M103.601 36.5317H100.325C100.267 36.5317 100.216 36.4822 100.216 36.4229V34.4682C100.216 34.4108 100.265 34.3594 100.325 34.3594H109.515C109.572 34.3594 109.624 34.4088 109.624 34.4682V36.4229C109.624 36.4802 109.574 36.5317 109.515 36.5317H106.296C106.237 36.5317 106.187 36.5811 106.187 36.6405V47.7474C106.187 47.8067 106.138 47.8562 106.078 47.8562H103.818C103.761 47.8562 103.71 47.8067 103.71 47.7474V36.6405C103.71 36.5732 103.66 36.5317 103.601 36.5317Z" fill="white"/>
<path d="M114.449 47.5378C113.59 47.1876 112.847 46.7029 112.206 46.0679C111.564 45.4328 111.071 44.6988 110.714 43.8461C110.356 42.9954 110.18 42.0754 110.18 41.0822C110.18 40.0891 110.356 39.1533 110.714 38.3104C111.071 37.4676 111.564 36.7317 112.198 36.1065C112.833 35.4793 113.575 34.9966 114.433 34.6444C115.291 34.2942 116.216 34.1182 117.217 34.1182C118.217 34.1182 119.143 34.2942 120.003 34.6444C120.861 34.9946 121.604 35.4793 122.247 36.1065C122.89 36.7336 123.38 37.4597 123.74 38.3104C124.098 39.1533 124.274 40.0811 124.274 41.0822C124.274 42.0833 124.098 42.9954 123.74 43.8461C123.382 44.6988 122.89 45.4407 122.247 46.0679C121.604 46.695 120.863 47.1857 120.003 47.5378C119.145 47.888 118.219 48.0641 117.217 48.0641C116.214 48.0641 115.307 47.888 114.449 47.5378ZM119.568 45.1993C120.252 44.7898 120.794 44.2299 121.193 43.5117C121.592 42.8015 121.794 41.9923 121.794 41.0822C121.794 40.1721 121.594 39.3709 121.193 38.6606C120.794 37.9504 120.25 37.4004 119.568 36.9829C118.884 36.5734 118.101 36.3657 117.217 36.3657C116.333 36.3657 115.566 36.5734 114.874 36.9829C114.182 37.3925 113.632 37.9524 113.239 38.6606C112.839 39.3709 112.637 40.1721 112.637 41.0822C112.637 41.9923 112.837 42.7936 113.239 43.5117C113.638 44.222 114.182 44.7898 114.874 45.1993C115.566 45.6089 116.349 45.8166 117.217 45.8166C118.085 45.8166 118.884 45.6168 119.568 45.1993Z" fill="white"/>
<path d="M126.456 34.4623C126.456 34.403 126.505 34.3535 126.565 34.3535H132.135C133.462 34.3535 134.504 34.6879 135.261 35.3645C136.02 36.0411 136.404 36.967 136.404 38.1541C136.404 38.6131 136.321 39.0483 136.145 39.4559C135.969 39.8654 135.694 40.2413 135.32 40.5757C135.921 40.9595 136.346 41.4284 136.588 41.9705C136.829 42.5125 136.945 43.0902 136.945 43.7075C136.945 45.0014 136.52 46.0124 135.67 46.7385C134.82 47.4725 133.643 47.8325 132.135 47.8325H126.565C126.507 47.8325 126.456 47.7831 126.456 47.7237V34.4623ZM132.267 39.5904C132.775 39.5904 133.177 39.44 133.475 39.1472C133.776 38.8544 133.926 38.4706 133.926 37.9958C133.926 37.521 133.776 37.153 133.475 36.8681C133.175 36.5931 132.767 36.4506 132.267 36.4506H129.032C128.975 36.4506 128.924 36.5001 128.924 36.5595V39.4737C128.924 39.533 128.973 39.5825 129.032 39.5825H132.267V39.5904ZM132.392 45.678C133.034 45.678 133.543 45.5019 133.918 45.1438C134.302 44.7838 134.486 44.3169 134.486 43.7233C134.486 43.1298 134.294 42.6372 133.918 42.287C133.535 41.9289 133.027 41.7528 132.392 41.7528H129.03C128.973 41.7528 128.922 41.8023 128.922 41.8616V45.5771C128.922 45.6365 128.971 45.6859 129.03 45.6859H132.392V45.678Z" fill="white"/>
<path d="M139.066 34.3535H147.805C147.865 34.3535 147.914 34.403 147.914 34.4623V36.417C147.914 36.4764 147.865 36.5258 147.805 36.5258H141.525C141.468 36.5258 141.417 36.5753 141.417 36.6346V39.8753C141.417 39.9347 141.466 39.9841 141.525 39.9841H147.438C147.497 39.9841 147.546 40.0336 147.546 40.0929V42.0476C147.546 42.107 147.497 42.1564 147.438 42.1564H141.525C141.468 42.1564 141.417 42.2059 141.417 42.2652V45.5633C141.417 45.6207 141.466 45.6721 141.525 45.6721H147.805C147.865 45.6721 147.914 45.7215 147.914 45.7809V47.7356C147.914 47.793 147.865 47.8444 147.805 47.8444H139.066C139.006 47.8444 138.957 47.7949 138.957 47.7356V34.4584C138.957 34.4089 139.006 34.3575 139.066 34.3575V34.3535Z" fill="white"/>
<path d="M149.721 34.4623C149.721 34.403 149.77 34.3535 149.829 34.3535H154.733C155.651 34.3535 156.459 34.5197 157.167 34.8541C157.877 35.1884 158.427 35.6632 158.818 36.2904C159.219 36.9176 159.419 37.6931 159.419 38.6111C159.419 39.5291 159.202 40.3323 158.761 40.9832C158.344 41.6005 157.786 42.0694 157.084 42.3859C157.027 42.4116 157.001 42.4769 157.035 42.5363L159.979 47.6881C160.02 47.7633 159.969 47.8543 159.886 47.8543H157.351C157.309 47.8543 157.276 47.8286 157.26 47.7949L154.533 42.926C154.516 42.8924 154.474 42.8687 154.44 42.8687H152.299C152.24 42.8687 152.19 42.9181 152.19 42.9775V47.7376C152.19 47.7969 152.139 47.8464 152.082 47.8464H149.837C149.778 47.8464 149.729 47.7969 149.729 47.7376V34.4603H149.721V34.4623ZM154.767 40.6924C155.425 40.6924 155.959 40.5005 156.358 40.1246C156.76 39.7408 156.959 39.2402 156.959 38.6131C156.959 37.9859 156.76 37.4695 156.358 37.0936C155.959 36.7177 155.433 36.5337 154.767 36.5337H152.289C152.232 36.5337 152.18 36.5832 152.18 36.6426V40.5915C152.18 40.6508 152.232 40.7003 152.289 40.7003H154.767V40.6924Z" fill="white"/>
<path d="M83.8953 51.8882H92.5755C92.6506 51.8882 92.7179 51.9475 92.7179 52.0306V53.926C92.7179 54.0011 92.6605 54.0684 92.5755 54.0684H86.355C86.2799 54.0684 86.2126 54.1278 86.2126 54.2109V57.3922C86.2126 57.4673 86.27 57.5346 86.355 57.5346H92.2077C92.2829 57.5346 92.3501 57.594 92.3501 57.6771V59.5724C92.3501 59.6476 92.2908 59.7148 92.2077 59.7148H86.355C86.2799 59.7148 86.2126 59.7722 86.2126 59.8573V63.0979C86.2126 63.1731 86.27 63.2404 86.355 63.2404H92.5755C92.6506 63.2404 92.7179 63.2997 92.7179 63.3828V65.2782C92.7179 65.3534 92.6605 65.4206 92.5755 65.4206H83.8953C83.8202 65.4206 83.7529 65.3632 83.7529 65.2782V52.0346C83.7529 51.9594 83.8202 51.8921 83.8953 51.8921V51.8882Z" fill="white"/>
<path d="M96.9534 65.1336C96.2198 64.8171 95.595 64.3818 95.0691 63.8219C94.5767 63.2957 94.201 62.6784 93.9598 61.984C93.9341 61.9167 93.9677 61.8336 94.0349 61.8079L95.8362 61.0225C95.9035 60.9888 95.9786 61.0225 96.0122 61.0897C96.3365 61.8079 96.7873 62.3678 97.3706 62.7852C97.9875 63.2284 98.6795 63.444 99.4467 63.444C100.289 63.444 100.914 63.1849 101.331 62.6586C101.456 62.5003 101.531 62.2985 101.564 62.0987C101.632 61.5645 101.523 61.1392 101.23 60.8207C100.997 60.5694 100.639 60.3617 100.17 60.2034L97.5861 59.3685C96.5362 59.0341 95.7433 58.5415 95.2173 57.8906C94.6835 57.2476 94.4245 56.48 94.4245 55.6016C94.4245 54.824 94.6163 54.1494 94.9919 53.5559C95.3755 52.9623 95.9015 52.5034 96.5836 52.169C97.2678 51.8346 98.0429 51.6685 98.9267 51.6685C100.145 51.6685 101.203 51.9771 102.104 52.5944C102.962 53.1879 103.581 53.9555 103.947 54.9151C103.973 54.9823 103.939 55.0654 103.872 55.099L102.096 55.8924C102.029 55.926 101.946 55.8924 101.92 55.8172C101.653 55.1999 101.278 54.7231 100.777 54.3809C100.244 54.0129 99.6346 53.8289 98.9346 53.8289C98.3098 53.8289 97.8016 53.9793 97.426 54.2879C97.0424 54.5965 96.8585 54.9981 96.8585 55.4908C96.8585 55.8667 96.983 56.1911 97.2342 56.476C97.4853 56.7589 97.8432 56.9766 98.3256 57.1348L100.803 57.9104C102.946 58.5949 104.022 59.8394 104.022 61.6437C104.022 62.4192 103.822 63.0958 103.421 63.6894C103.022 64.2829 102.47 64.7498 101.778 65.0842C101.078 65.4185 100.259 65.5946 99.334 65.5946C98.466 65.5946 97.6751 65.4363 96.9494 65.1277L96.9534 65.1336Z" fill="white"/>
<path d="M108.471 54.0684H105.252C105.177 54.0684 105.109 54.011 105.109 53.926V52.0306C105.109 51.9555 105.167 51.8882 105.252 51.8882H114.383C114.458 51.8882 114.525 51.9475 114.525 52.0306V53.926C114.525 54.0011 114.466 54.0684 114.383 54.0684H111.223C111.148 54.0684 111.081 54.1278 111.081 54.2109V65.2584C111.081 65.3336 111.021 65.4008 110.938 65.4008H108.738C108.663 65.4008 108.595 65.3415 108.595 65.2584V54.2029C108.613 54.1278 108.546 54.0684 108.471 54.0684Z" fill="white"/>
<path d="M116.158 51.8882H118.343C118.418 51.8882 118.485 51.9475 118.485 52.0306V65.2505C118.485 65.3257 118.428 65.3929 118.343 65.3929H116.158C116.083 65.3929 116.016 65.3336 116.016 65.2505V52.0306C116.024 51.9555 116.083 51.8882 116.158 51.8882Z" fill="white"/>
<path d="M120.161 51.8882H122.545C122.605 51.8882 122.654 51.9297 122.68 51.9792L125.956 61.8654C125.998 61.99 126.174 61.99 126.215 61.8654L129.468 51.9792C129.484 51.9198 129.543 51.8882 129.6 51.8882H131.985C132.076 51.8882 132.143 51.9792 132.117 52.0722L127.53 65.292C127.512 65.3514 127.455 65.383 127.398 65.383H124.772C124.712 65.383 124.663 65.3494 124.637 65.292L120.034 52.0722C120.001 51.9891 120.068 51.8882 120.159 51.8882H120.161Z" fill="white"/>
<path d="M136.504 51.8882H139.49C139.547 51.8882 139.599 51.9218 139.623 51.9792L144.176 65.1991C144.21 65.2901 144.143 65.3831 144.044 65.3831H141.659C141.602 65.3831 141.55 65.3415 141.527 65.292L140.627 62.5856C140.611 62.5282 140.552 62.4945 140.495 62.4945H135.482C135.425 62.4945 135.373 62.5361 135.35 62.5856L134.432 65.3C134.416 65.3593 134.357 65.391 134.298 65.391H131.929C131.838 65.391 131.771 65.3 131.797 65.207L136.35 51.9871C136.4 51.9278 136.451 51.8862 136.508 51.8862L136.504 51.8882ZM139.84 60.1303L138.13 55.0201C138.088 54.8954 137.912 54.8954 137.871 55.0201L136.16 60.1303C136.127 60.2213 136.194 60.3143 136.293 60.3143H139.712C139.795 60.3143 139.862 60.2233 139.836 60.1303H139.84Z" fill="white"/>
<path d="M145.877 51.8882H148.062C148.137 51.8882 148.204 51.9475 148.204 52.0306V63.0782C148.204 63.1533 148.261 63.2206 148.346 63.2206H153.841C153.916 63.2206 153.981 63.28 153.981 63.3631V65.2584C153.981 65.3336 153.924 65.4008 153.841 65.4008H145.887C145.811 65.4008 145.744 65.3415 145.744 65.2584V52.0306C145.744 51.9555 145.801 51.8882 145.877 51.8882Z" fill="white"/>
<path d="M82.0702 54.094V51.989C82.0702 51.9395 82.0287 51.8979 81.9793 51.8979H74.4913C74.4419 51.8979 74.4004 51.9395 74.4004 51.989V65.3908H76.6841V59.8967C76.6841 59.8473 76.7257 59.8057 76.7751 59.8057H81.3525C81.4019 59.8057 81.4434 59.7642 81.4434 59.7147V57.6097C81.4434 57.5602 81.4019 57.5187 81.3525 57.5187H76.7751C76.7257 57.5187 76.6841 57.4771 76.6841 57.4276V54.28C76.6841 54.2305 76.7257 54.189 76.7751 54.189H81.9793C82.0287 54.1811 82.0702 54.1474 82.0702 54.098V54.094Z" fill="white"/>
<path fill-rule="evenodd" clip-rule="evenodd" d="M15.0175 17.7741C16.8603 19.895 19.2014 21.6914 20.8465 22.827C27.6918 27.5594 30.63 33.5382 31.7491 38.2844C32.113 39.8434 32.2276 41.4796 32.2533 42.6963C32.2672 43.3116 32.2593 43.8319 32.2474 44.2039C32.2415 44.3898 32.2356 44.5382 32.2296 44.6411C32.2296 44.6767 32.2257 44.7084 32.2237 44.7321C32.2237 44.74 32.2237 44.7479 32.2237 44.7559V65.6579H29.2163V44.655L29.2202 44.6035V44.5996V44.5778C29.2202 44.558 29.2242 44.5264 29.2262 44.4828C29.2301 44.3978 29.236 44.2711 29.242 44.1069C29.2519 43.7805 29.2598 43.3116 29.2459 42.7616C29.2202 41.6458 29.1174 40.2431 28.8188 38.9709C27.846 34.842 25.2815 29.5497 19.1362 25.3C17.4061 24.105 14.8297 22.1424 12.7456 19.7446C10.7031 17.3922 8.88403 14.3356 9.24785 11.0039L12.2375 11.3303C12.014 13.378 13.1312 15.6018 15.0155 17.7701L15.0175 17.7741Z" fill="url(#paint0_linear_519_753)"/>
<path fill-rule="evenodd" clip-rule="evenodd" d="M3.05665 42.4846C3.05665 42.4846 3.05665 42.4846 2.37647 41.1432C1.92302 40.249 1.69629 39.8019 1.69629 39.8019H1.70024L1.71211 39.7939C1.72199 39.79 1.73386 39.7821 1.75165 39.7742C1.78527 39.7564 1.8347 39.7326 1.89797 39.7029C2.02254 39.6416 2.20445 39.5546 2.43579 39.4477C2.89847 39.234 3.55887 38.9393 4.37153 38.6128C5.98893 37.958 8.22325 37.1587 10.6612 36.5988C13.0853 36.0409 15.7982 35.6986 18.3429 36.025C20.9015 36.3535 23.3869 37.3743 25.1506 39.6238C25.1566 39.6317 25.1645 39.6396 25.1704 39.6475C25.1921 39.6752 25.2159 39.7069 25.2436 39.7445C25.2989 39.8197 25.3642 39.9186 25.4393 40.0432C25.5876 40.2925 25.7675 40.6387 25.9494 41.1037C26.3133 42.0335 26.6791 43.4204 26.8254 45.4048C27.12 49.3636 26.5466 55.7242 23.3177 65.6599H20.1699L20.4586 64.728C23.6123 55.0298 24.0849 49.0747 23.8278 45.6263C23.6993 43.9071 23.3909 42.819 23.1496 42.1977C23.029 41.8871 22.9222 41.6913 22.861 41.5904C22.8372 41.5488 22.8194 41.5231 22.8115 41.5112L22.7937 41.4895C21.6528 40.0294 19.9919 39.2677 17.9613 39.0065C15.9089 38.7434 13.5856 39.0105 11.3355 39.5288C9.10115 40.0432 7.02502 40.7832 5.49857 41.4004C4.7393 41.7071 4.1224 41.9821 3.69728 42.1779C3.48572 42.2769 3.3216 42.354 3.21285 42.4074C3.15749 42.4332 3.11794 42.4549 3.09224 42.4668C3.0784 42.4727 3.07049 42.4787 3.06456 42.4806L3.05863 42.4846H3.05665Z" fill="url(#paint1_linear_519_753)"/>
<path d="M13.8789 33.0261C15.8226 33.0261 17.3984 31.4493 17.3984 29.5045C17.3984 27.5597 15.8226 25.9849 13.8789 25.9849C11.9353 25.9849 10.3594 27.5617 10.3594 29.5045C10.3594 31.4473 11.9353 33.0261 13.8789 33.0261Z" fill="url(#paint2_linear_519_753)"/>
<path d="M30.7207 26.1272C32.6643 26.1272 34.2402 24.5504 34.2402 22.6056C34.2402 20.6608 32.6643 19.084 30.7207 19.084C28.777 19.084 27.2031 20.6608 27.2031 22.6056C27.2031 24.5504 28.779 26.1272 30.7207 26.1272Z" fill="url(#paint3_linear_519_753)"/>
<path fill-rule="evenodd" clip-rule="evenodd" d="M48.6938 19.7485C46.6097 22.1463 44.0333 24.1089 42.3032 25.3039C36.1579 29.5536 33.5934 34.8439 32.6206 38.9748C32.324 40.245 32.2192 41.6497 32.1935 42.7655C32.1816 43.3175 32.1875 43.7844 32.1974 44.1108C32.2034 44.275 32.2073 44.4016 32.2132 44.4867C32.2152 44.5283 32.2172 44.5619 32.2192 44.5817V44.6034V44.6074L32.2231 44.6588V65.6618H29.2157V44.7597C29.2157 44.732 29.2117 44.6925 29.2098 44.645C29.2038 44.5401 29.1979 44.3917 29.192 44.2078C29.1801 43.8378 29.1722 43.3155 29.186 42.7002C29.2137 41.4854 29.3264 39.8493 29.6922 38.2903C30.8094 33.5421 33.7476 27.5633 40.5949 22.8309C42.24 21.6933 44.581 19.8988 46.4239 17.776C48.3062 15.6076 49.4253 13.3839 49.2019 11.3362L52.1915 11.0098C52.5554 14.3395 50.7363 17.3981 48.6938 19.7505V19.7485Z" fill="url(#paint4_linear_519_753)"/>
<path fill-rule="evenodd" clip-rule="evenodd" d="M59.745 39.7999C59.745 39.7999 59.745 39.7999 59.0648 41.1413C58.6114 42.0355 58.3847 42.4826 58.3847 42.4826L58.3787 42.4787C58.3728 42.4767 58.3629 42.4708 58.351 42.4648C58.3253 42.451 58.2838 42.4312 58.2304 42.4055C58.1217 42.3521 57.9576 42.2749 57.746 42.176C57.3209 41.9801 56.704 41.7051 55.9447 41.3985C54.4202 40.7812 52.3441 40.0413 50.1078 39.5269C47.8597 39.0105 45.5344 38.7414 43.482 39.0046C41.4513 39.2657 39.7904 40.0274 38.6496 41.4875L38.6318 41.5093C38.6239 41.5211 38.6061 41.5469 38.5804 41.5884C38.5191 41.6893 38.4143 41.8852 38.2917 42.1958C38.0485 42.817 37.74 43.9051 37.6135 45.6244C37.3564 49.0728 37.829 55.0259 40.9827 64.7261L41.3228 65.6579H38.1236C34.8928 55.7223 34.3213 49.3616 34.6159 45.4028C34.7642 43.4184 35.13 42.0316 35.4919 41.1017C35.6738 40.6368 35.8537 40.2906 36.002 40.0413C36.0771 39.9166 36.1424 39.8177 36.1978 39.7425C36.2254 39.7049 36.2492 39.6733 36.2709 39.6456C36.2788 39.6377 36.2847 39.6278 36.2907 39.6218C38.0544 37.3724 40.5398 36.3515 43.0984 36.0231C45.6412 35.6966 48.354 36.0389 50.7801 36.5968C53.2181 37.1567 55.4524 37.958 57.0698 38.6109C57.8805 38.9393 58.5428 39.2321 59.0055 39.4458C59.2369 39.5526 59.4188 39.6396 59.5433 39.701C59.6066 39.7307 59.6541 39.7564 59.6877 39.7722C59.7055 39.7801 59.7173 39.788 59.7272 39.792L59.7391 39.7979H59.743L59.745 39.7999Z" fill="url(#paint5_linear_519_753)"/>
<path d="M47.5556 33.0261C49.4993 33.0261 51.0752 31.4493 51.0752 29.5045C51.0752 27.5597 49.4993 25.9849 47.5556 25.9849C45.612 25.9849 44.0381 27.5617 44.0381 29.5045C44.0381 31.4473 45.614 33.0261 47.5556 33.0261Z" fill="url(#paint6_linear_519_753)"/>
<path d="M13.3225 41.5708C12.0215 42.3087 11.2108 43.5571 10.9834 44.9262C12.2686 45.4386 13.7654 45.3773 15.0665 44.6472C16.3675 43.9093 17.1782 42.6609 17.4056 41.2918C16.1124 40.7794 14.6156 40.8328 13.3225 41.5708Z" fill="url(#paint7_linear_519_753)"/>
<path d="M19.0961 7.71806C18.675 6.28964 17.6369 5.21337 16.3517 4.6792C15.5687 5.81482 15.284 7.28874 15.7051 8.71915C16.1263 10.1476 17.1643 11.2238 18.4496 11.758C19.2306 10.6145 19.5173 9.14846 19.0961 7.71806Z" fill="url(#paint8_linear_519_753)"/>
<path d="M27.6539 12.3237C27.4878 10.8418 26.6455 9.60134 25.4808 8.85547C24.512 9.84072 23.9762 11.2395 24.1422 12.7213C24.3083 14.2032 25.1506 15.4456 26.3153 16.1895C27.292 15.2042 27.8259 13.8055 27.6539 12.3237Z" fill="url(#paint9_linear_519_753)"/>
<path d="M32.443 3.6403C32.4054 2.15055 31.6837 0.840831 30.5864 0C29.5345 0.894249 28.88 2.24156 28.9176 3.73922C28.9551 5.22898 29.6847 6.5387 30.7821 7.37953C31.834 6.47737 32.4885 5.13006 32.443 3.6403Z" fill="url(#paint10_linear_519_753)"/>
<path d="M3.69947 34.3355C2.21058 34.3513 0.871975 33.6668 0 32.5985C0.858134 31.5163 2.18092 30.8159 3.66981 30.8001C5.15869 30.7842 6.4973 31.4708 7.36927 32.5371C6.51114 33.6213 5.18835 34.3197 3.69947 34.3355Z" fill="url(#paint11_linear_519_753)"/>
<path d="M5.72216 22.0414C4.49625 21.1986 3.79037 19.875 3.68359 18.4981C5.00639 18.1063 6.49527 18.2864 7.72117 19.1292C8.94708 19.972 9.65296 21.2956 9.75776 22.6725C8.43497 23.0722 6.94608 22.8902 5.72018 22.0414H5.72216Z" fill="url(#paint12_linear_519_753)"/>
<path d="M48.0362 41.5708C49.3372 42.3087 50.1479 43.5571 50.3753 44.9262C49.0901 45.4386 47.5933 45.3773 46.2922 44.6472C44.9912 43.9093 44.1805 42.6609 43.9531 41.2918C45.2463 40.7794 46.743 40.8328 48.0362 41.5708Z" fill="url(#paint13_linear_519_753)"/>
<path d="M42.2684 7.71806C42.6896 6.28964 43.7276 5.21337 45.0129 4.6792C45.7959 5.81482 46.0806 7.28874 45.6594 8.71915C45.2383 10.1476 44.2002 11.2238 42.915 11.758C42.126 10.6145 41.8393 9.14846 42.2684 7.71806Z" fill="url(#paint14_linear_519_753)"/>
<path d="M33.7048 12.3237C33.8709 10.8418 34.7132 9.60134 35.8778 8.85547C36.8467 9.84072 37.3805 11.2395 37.2164 12.7213C37.0503 14.2032 36.208 15.4456 35.0434 16.1895C34.0666 15.2042 33.5328 13.8055 33.7048 12.3237Z" fill="url(#paint15_linear_519_753)"/>
<path d="M28.9156 3.6403C28.9532 2.15055 29.6828 0.840831 30.7802 0C31.8321 0.894249 32.4865 2.24156 32.449 3.73922C32.4114 5.22898 31.6818 6.5387 30.5844 7.37953C29.5325 6.47737 28.878 5.13006 28.9156 3.6403Z" fill="url(#paint16_linear_519_753)"/>
<path d="M57.6669 34.3355C59.1558 34.3513 60.4944 33.6668 61.3663 32.5985C60.5082 31.5163 59.1854 30.8159 57.6965 30.8001C56.2077 30.7842 54.869 31.4708 53.9971 32.5371C54.8473 33.6213 56.1701 34.3197 57.6669 34.3355Z" fill="url(#paint17_linear_519_753)"/>
<path d="M55.6362 22.0414C56.8621 21.1986 57.568 19.875 57.6728 18.4981C56.35 18.1063 54.8611 18.2864 53.6352 19.1292C52.4093 19.972 51.7035 21.2956 51.5967 22.6725C52.9274 23.0722 54.4083 22.8902 55.6343 22.0414H55.6362Z" fill="url(#paint18_linear_519_753)"/>
<defs>
<linearGradient id="paint0_linear_519_753" x1="3.2073" y1="79.4911" x2="36.0625" y2="2.44528" gradientUnits="userSpaceOnUse">
<stop stop-color="#FFC200"/>
<stop offset="1" stop-color="#00A650"/>
</linearGradient>
<linearGradient id="paint1_linear_519_753" x1="1.42936" y1="78.7333" x2="34.2846" y2="1.68752" gradientUnits="userSpaceOnUse">
<stop stop-color="#FFC200"/>
<stop offset="1" stop-color="#00A650"/>
</linearGradient>
<linearGradient id="paint2_linear_519_753" x1="-5.77907" y1="75.6592" x2="27.0761" y2="-1.38661" gradientUnits="userSpaceOnUse">
<stop stop-color="#FFC200"/>
<stop offset="1" stop-color="#00A650"/>
</linearGradient>
<linearGradient id="paint3_linear_519_753" x1="5.98706" y1="80.6763" x2="38.8423" y2="3.63055" gradientUnits="userSpaceOnUse">
<stop stop-color="#FFC200"/>
<stop offset="1" stop-color="#00A650"/>
</linearGradient>
<linearGradient id="paint4_linear_519_753" x1="16.6087" y1="85.2067" x2="49.4639" y2="8.16088" gradientUnits="userSpaceOnUse">
<stop stop-color="#FFC200"/>
<stop offset="1" stop-color="#00A650"/>
</linearGradient>
<linearGradient id="paint5_linear_519_753" x1="26.7187" y1="89.5178" x2="59.5739" y2="12.472" gradientUnits="userSpaceOnUse">
<stop stop-color="#FFC200"/>
<stop offset="1" stop-color="#00A650"/>
</linearGradient>
<linearGradient id="paint6_linear_519_753" x1="22.7192" y1="87.8126" x2="55.5744" y2="10.7669" gradientUnits="userSpaceOnUse">
<stop stop-color="#FFC200"/>
<stop offset="1" stop-color="#00A650"/>
</linearGradient>
<linearGradient id="paint7_linear_519_753" x1="-0.609316" y1="77.865" x2="32.2459" y2="0.819213" gradientUnits="userSpaceOnUse">
<stop stop-color="#FFC200"/>
<stop offset="1" stop-color="#00A650"/>
</linearGradient>
<linearGradient id="paint8_linear_519_753" x1="-10.4719" y1="73.659" x2="22.3833" y2="-3.3868" gradientUnits="userSpaceOnUse">
<stop stop-color="#FFC200"/>
<stop offset="1" stop-color="#00A650"/>
</linearGradient>
<linearGradient id="paint9_linear_519_753" x1="-1.72832" y1="77.3862" x2="31.1269" y2="0.340368" gradientUnits="userSpaceOnUse">
<stop stop-color="#FFC200"/>
<stop offset="1" stop-color="#00A650"/>
</linearGradient>
<linearGradient id="paint10_linear_519_753" x1="-0.866015" y1="77.7541" x2="31.9892" y2="0.70832" gradientUnits="userSpaceOnUse">
<stop stop-color="#FFC200"/>
<stop offset="1" stop-color="#00A650"/>
</linearGradient>
<linearGradient id="paint11_linear_519_753" x1="-13.303" y1="72.4499" x2="19.5522" y2="-4.59591" gradientUnits="userSpaceOnUse">
<stop stop-color="#FFC200"/>
<stop offset="1" stop-color="#00A650"/>
</linearGradient>
<linearGradient id="paint12_linear_519_753" x1="-15.051" y1="71.7058" x2="17.8042" y2="-5.33995" gradientUnits="userSpaceOnUse">
<stop stop-color="#FFC200"/>
<stop offset="1" stop-color="#00A650"/>
</linearGradient>
<linearGradient id="paint13_linear_519_753" x1="27.2927" y1="89.7633" x2="60.1479" y2="12.7175" gradientUnits="userSpaceOnUse">
<stop stop-color="#FFC200"/>
<stop offset="1" stop-color="#00A650"/>
</linearGradient>
<linearGradient id="paint14_linear_519_753" x1="12.0083" y1="83.2445" x2="44.8636" y2="6.19868" gradientUnits="userSpaceOnUse">
<stop stop-color="#FFC200"/>
<stop offset="1" stop-color="#00A650"/>
</linearGradient>
<linearGradient id="paint15_linear_519_753" x1="6.36315" y1="80.8365" x2="39.2184" y2="3.79075" gradientUnits="userSpaceOnUse">
<stop stop-color="#FFC200"/>
<stop offset="1" stop-color="#00A650"/>
</linearGradient>
<linearGradient id="paint16_linear_519_753" x1="-0.864005" y1="77.7561" x2="31.9912" y2="0.710306" gradientUnits="userSpaceOnUse">
<stop stop-color="#FFC200"/>
<stop offset="1" stop-color="#00A650"/>
</linearGradient>
<linearGradient id="paint17_linear_519_753" x1="32.3935" y1="91.9374" x2="65.2487" y2="14.8916" gradientUnits="userSpaceOnUse">
<stop stop-color="#FFC200"/>
<stop offset="1" stop-color="#00A650"/>
</linearGradient>
<linearGradient id="paint18_linear_519_753" x1="25.4988" y1="88.9973" x2="58.354" y2="11.9515" gradientUnits="userSpaceOnUse">
<stop stop-color="#FFC200"/>
<stop offset="1" stop-color="#00A650"/>
</linearGradient>
</defs>
</svg>
