<svg width="180" height="1593" viewBox="0 0 180 1593" fill="none" xmlns="http://www.w3.org/2000/svg">
<path fill-rule="evenodd" clip-rule="evenodd" d="M-92 1592.54C-64.3418 1529.79 -35.0971 1473.08 -9.62243 1427.13C221.131 1010.22 197.923 639.436 112.618 378.224C84.3892 292.527 40.0383 209.884 3.7728 150.053C-14.52 119.774 -31.0704 94.7041 -43.2435 76.9529C-49.3302 68.0773 -54.2524 61.0284 -57.7656 56.1909C-58.6253 54.8419 -59.5429 53.6754 -60.3056 52.7057C-60.5215 52.4313 -60.7249 52.1727 -60.9112 51.9301L-61.6464 50.7764L-92 3.14746V367.401C-83.8724 386.402 -76.4595 405.681 -70.1638 424.884C-8.88548 612.4 17.177 868.022 -92 1162.03V1592.54Z" fill="url(#paint0_linear_378_27979)"/>
<defs>
<linearGradient id="paint0_linear_378_27979" x1="-2736.8" y1="-844.842" x2="1056.28" y2="2465.1" gradientUnits="userSpaceOnUse">
<stop stop-color="#FFC200"/>
<stop offset="1" stop-color="#00A650"/>
</linearGradient>
</defs>
</svg>
