<svg width="30" height="31" viewBox="0 0 30 31" fill="none" xmlns="http://www.w3.org/2000/svg">
<g clip-path="url(#clip0_378_30200)">
<path d="M7.7506 26.6222H2.30858V9.10336H7.7506V26.6222ZM5.02666 6.71364C3.28648 6.71364 1.875 5.27278 1.875 3.5332C1.875 2.69762 2.20705 1.89626 2.7981 1.30541C3.38915 0.714563 4.19079 0.382629 5.02666 0.382629C5.86253 0.382629 6.66417 0.714563 7.25522 1.30541C7.84627 1.89626 8.17832 2.69762 8.17832 3.5332C8.17832 5.27278 6.76626 6.71364 5.02666 6.71364ZM28.1183 26.6222H22.688V18.0941C22.688 16.0617 22.647 13.4552 19.8586 13.4552C17.0292 13.4552 16.5956 15.6634 16.5956 17.9477V26.6222H11.1595V9.10336H16.3789V11.4931H16.455C17.1816 10.1167 18.9563 8.66408 21.6041 8.66408C27.1117 8.66408 28.1242 12.2897 28.1242 16.9988V26.6222H28.1183Z" fill="white"/>
</g>
<defs>
<clipPath id="clip0_378_30200">
<rect width="29.9991" height="29.9887" fill="white" transform="translate(0 0.382202)"/>
</clipPath>
</defs>
</svg>
