<svg width="46" height="46" viewBox="0 0 46 46" fill="none" xmlns="http://www.w3.org/2000/svg">
<g clip-path="url(#clip0_378_30024)">
<path d="M26.2861 6.57153H37.2385C38.4483 6.57153 39.429 7.55224 39.429 8.76201V19.7144H26.2861V6.57153Z" fill="white"/>
<rect width="24.0952" height="24.0952" rx="1.09524" fill="white"/>
<path d="M16.7794 10.5344L8.90661 5.70367C7.88038 5.07398 6.57129 5.82542 6.57129 7.04417V17.0507C6.57129 18.2912 7.92255 19.039 8.94708 18.3655L16.8199 13.1897C17.7756 12.5614 17.7539 11.1323 16.7794 10.5344Z" fill="url(#paint0_linear_378_30024)"/>
<rect x="21.9043" y="21.9048" width="24.0952" height="24.0952" rx="1.09524" fill="url(#paint1_linear_378_30024)"/>
<path d="M37.7861 25.1904C35.9715 25.1904 34.5004 26.6615 34.5004 28.4761V30.6723C33.7535 30.3175 32.918 30.119 32.0361 30.119C28.8605 30.119 26.2861 32.6934 26.2861 35.869C26.2861 39.0446 28.8605 41.619 32.0361 41.619C35.2118 41.619 37.7861 39.0446 37.7861 35.869V28.4761H41.0718C41.9792 28.4761 42.7147 27.7406 42.7147 26.8333C42.7147 25.926 41.9792 25.1904 41.0718 25.1904H37.7861Z" fill="white"/>
<path d="M6.57129 26.2856H19.7141V39.4285H8.76177C7.552 39.4285 6.57129 38.4478 6.57129 37.238V26.2856Z" fill="url(#paint2_linear_378_30024)"/>
<path d="M10.9521 26.2856H19.7141V35.0475H12.0474C11.4425 35.0475 10.9521 34.5572 10.9521 33.9523V26.2856Z" fill="white"/>
<path d="M33.9528 12.0476H26.2861" stroke="url(#paint3_linear_378_30024)" stroke-width="2.19048"/>
<path d="M33.9528 17.5239H26.2861" stroke="url(#paint4_linear_378_30024)" stroke-width="2.19048"/>
</g>
<defs>
<linearGradient id="paint0_linear_378_30024" x1="18.738" y1="44.9047" x2="1.45788" y2="42.7449" gradientUnits="userSpaceOnUse">
<stop stop-color="#FFC200"/>
<stop offset="1" stop-color="#00A650"/>
</linearGradient>
<linearGradient id="paint1_linear_378_30024" x1="48.6711" y1="94.1905" x2="10.9103" y2="88.5271" gradientUnits="userSpaceOnUse">
<stop stop-color="#FFC200"/>
<stop offset="1" stop-color="#00A650"/>
</linearGradient>
<linearGradient id="paint2_linear_378_30024" x1="21.1714" y1="65.7142" x2="0.574585" y2="62.6251" gradientUnits="userSpaceOnUse">
<stop stop-color="#FFC200"/>
<stop offset="1" stop-color="#00A650"/>
</linearGradient>
<linearGradient id="paint3_linear_378_30024" x1="34.8028" y1="15.0476" x2="29.5125" y2="8.96449" gradientUnits="userSpaceOnUse">
<stop stop-color="#FFC200"/>
<stop offset="1" stop-color="#00A650"/>
</linearGradient>
<linearGradient id="paint4_linear_378_30024" x1="34.8028" y1="20.5239" x2="29.5125" y2="14.4408" gradientUnits="userSpaceOnUse">
<stop stop-color="#FFC200"/>
<stop offset="1" stop-color="#00A650"/>
</linearGradient>
<clipPath id="clip0_378_30024">
<rect width="46" height="46" fill="white"/>
</clipPath>
</defs>
</svg>
