<svg width="46" height="47" viewBox="0 0 46 47" fill="none" xmlns="http://www.w3.org/2000/svg">
<path d="M10.4743 24.5524C10.5158 24.3185 10.7191 24.1482 10.9566 24.1482H34.0922C34.3297 24.1482 34.533 24.3185 34.5746 24.5524C35.5175 29.8562 35.5175 35.2847 34.5746 40.5885C34.533 40.8223 34.3297 40.9927 34.0922 40.9927H10.9566C10.7191 40.9927 10.5158 40.8223 10.4743 40.5885C9.53136 35.2847 9.53137 29.8562 10.4743 24.5524Z" fill="white"/>
<rect x="9.04883" y="15.1646" width="26.9512" height="6.73779" rx="0.607722" fill="white"/>
<rect width="6.73779" height="16.8445" transform="matrix(1 0 0 -1 19.1553 40.9927)" fill="url(#paint0_linear_378_29992)"/>
<rect width="6.73779" height="6.73779" transform="matrix(1 0 0 -1 19.1553 21.9023)" fill="url(#paint1_linear_378_29992)"/>
<path d="M6.18359 8L8.95091 10.7673" stroke="url(#paint2_linear_378_29992)" stroke-width="1.95679" stroke-linecap="round"/>
<path d="M1 20.7407H4.91357" stroke="url(#paint3_linear_378_29992)" stroke-width="1.95679" stroke-linecap="round"/>
<path d="M41.0859 20.7407L44.9995 20.7407" stroke="url(#paint4_linear_378_29992)" stroke-width="1.95679" stroke-linecap="round"/>
<path d="M39.0039 8.00024L36.2366 10.7676" stroke="url(#paint5_linear_378_29992)" stroke-width="1.95679" stroke-linecap="round"/>
<defs>
<linearGradient id="paint0_linear_378_29992" x1="7.48484" y1="50.5334" x2="-3.27306" y2="49.8881" gradientUnits="userSpaceOnUse">
<stop stop-color="#FFC200"/>
<stop offset="1" stop-color="#00A650"/>
</linearGradient>
<linearGradient id="paint1_linear_378_29992" x1="7.48484" y1="20.2134" x2="-3.07426" y2="18.6297" gradientUnits="userSpaceOnUse">
<stop stop-color="#FFC200"/>
<stop offset="1" stop-color="#00A650"/>
</linearGradient>
<linearGradient id="paint2_linear_378_29992" x1="15.271" y1="15.5164" x2="14.0963" y2="16.6045" gradientUnits="userSpaceOnUse">
<stop stop-color="#FFC200"/>
<stop offset="1" stop-color="#00A650"/>
</linearGradient>
<linearGradient id="paint3_linear_378_29992" x1="12.7407" y1="19.6298" x2="12.6794" y2="21.2299" gradientUnits="userSpaceOnUse">
<stop stop-color="#FFC200"/>
<stop offset="1" stop-color="#00A650"/>
</linearGradient>
<linearGradient id="paint4_linear_378_29992" x1="52.8267" y1="19.6298" x2="52.7653" y2="21.2299" gradientUnits="userSpaceOnUse">
<stop stop-color="#FFC200"/>
<stop offset="1" stop-color="#00A650"/>
</linearGradient>
<linearGradient id="paint5_linear_378_29992" x1="31.4875" y1="17.0877" x2="30.3994" y2="15.9129" gradientUnits="userSpaceOnUse">
<stop stop-color="#FFC200"/>
<stop offset="1" stop-color="#00A650"/>
</linearGradient>
</defs>
</svg>
