<svg width="54" height="55" viewBox="0 0 54 55" fill="none" xmlns="http://www.w3.org/2000/svg">
<path d="M45 47.75V43.25C45 40.8631 44.0518 38.5739 42.364 36.886C40.6761 35.1982 38.3869 34.25 36 34.25H33.75C33.1533 34.25 32.581 34.0129 32.159 33.591C31.7371 33.169 31.5 32.5967 31.5 32V20.75C31.5 19.5565 31.0259 18.4119 30.182 17.568C29.3381 16.7241 28.1935 16.25 27 16.25C25.8065 16.25 24.6619 16.7241 23.818 17.568C22.9741 18.4119 22.5 19.5565 22.5 20.75V41L17.1 33.8C16.6808 33.2411 16.1373 32.7875 15.5125 32.4751C14.8876 32.1627 14.1986 32 13.5 32H12.5235C10.5773 32 9 33.5772 9 35.5235C9 36.1625 9.17325 36.7902 9.50175 37.337L15.75 47.75M27 9.5V7.25V9.5ZM40.5 23H42.75H40.5ZM11.25 23H13.5H11.25ZM16.5217 12.5217L14.931 10.931L16.5217 12.5217ZM37.4782 12.5217L39.069 10.931L37.4782 12.5217Z" fill="url(#paint0_linear_378_30113)"/>
<path d="M45 47.75V43.25C45 40.8631 44.0518 38.5739 42.364 36.886C40.6761 35.1982 38.3869 34.25 36 34.25H33.75C33.1533 34.25 32.581 34.0129 32.159 33.591C31.7371 33.169 31.5 32.5967 31.5 32V20.75C31.5 19.5565 31.0259 18.4119 30.182 17.568C29.3381 16.7241 28.1935 16.25 27 16.25V16.25C25.8065 16.25 24.6619 16.7241 23.818 17.568C22.9741 18.4119 22.5 19.5565 22.5 20.75V41L17.1 33.8C16.6808 33.2411 16.1373 32.7875 15.5125 32.4751C14.8876 32.1627 14.1986 32 13.5 32H12.5235C10.5772 32 9 33.5772 9 35.5235C9 36.1625 9.17325 36.7902 9.50175 37.337L15.75 47.75M27 9.5V7.25M40.5 23H42.75M11.25 23H13.5M16.5217 12.5217L14.931 10.931M37.4782 12.5217L39.069 10.931" stroke="url(#paint1_linear_378_30113)" stroke-width="2.25" stroke-linecap="round" stroke-linejoin="round"/>
<defs>
<linearGradient id="paint0_linear_378_30113" x1="48.9915" y1="128.75" x2="-7.68745" y2="121.194" gradientUnits="userSpaceOnUse">
<stop stop-color="#FFC200"/>
<stop offset="1" stop-color="#00A650"/>
</linearGradient>
<linearGradient id="paint1_linear_378_30113" x1="48.9915" y1="128.75" x2="-7.68745" y2="121.194" gradientUnits="userSpaceOnUse">
<stop stop-color="#FFC200"/>
<stop offset="1" stop-color="#00A650"/>
</linearGradient>
</defs>
</svg>
