<svg width="46" height="46" viewBox="0 0 46 46" fill="none" xmlns="http://www.w3.org/2000/svg">
<path d="M3.83301 9.58317V36.4165C3.83301 37.475 4.69113 38.3332 5.74967 38.3332H30.6663C31.7249 38.3332 32.583 37.4751 32.583 36.4165V9.58317C32.583 8.52462 31.7249 7.6665 30.6663 7.6665H5.74967C4.69113 7.6665 3.83301 8.52462 3.83301 9.58317Z" fill="white"/>
<path d="M11.5 5.74992C11.5 4.69137 12.3581 3.83325 13.4167 3.83325H23C24.0585 3.83325 24.9167 4.69137 24.9167 5.74992V11.4999H11.5V5.74992Z" fill="url(#paint0_linear_378_29976)"/>
<rect x="17.25" y="17.25" width="24.9167" height="24.9167" rx="3.83333" fill="url(#paint1_linear_378_29976)"/>
<path fill-rule="evenodd" clip-rule="evenodd" d="M35.2828 25.4537C36.0448 26.1885 36.0669 27.4019 35.3321 28.1638L29.5234 34.1877C29.1622 34.5623 28.6641 34.7739 28.1437 34.7739C27.6233 34.7739 27.1252 34.5623 26.764 34.1877L23.537 30.8411C22.8022 30.0791 22.8243 28.8657 23.5862 28.131C24.3482 27.3962 25.5616 27.4183 26.2964 28.1802L28.1437 30.096L32.5727 25.503C33.3075 24.741 34.5208 24.7189 35.2828 25.4537Z" fill="white"/>
<defs>
<linearGradient id="paint0_linear_378_29976" x1="26.4042" y1="26.8333" x2="6.29099" y2="21.5542" gradientUnits="userSpaceOnUse">
<stop stop-color="#FFC200"/>
<stop offset="1" stop-color="#00A650"/>
</linearGradient>
<linearGradient id="paint1_linear_378_29976" x1="44.9293" y1="92" x2="5.88125" y2="86.1435" gradientUnits="userSpaceOnUse">
<stop stop-color="#FFC200"/>
<stop offset="1" stop-color="#00A650"/>
</linearGradient>
</defs>
</svg>
