<svg width="46" height="44" viewBox="0 0 46 44" fill="none" xmlns="http://www.w3.org/2000/svg">
<path d="M3 6.97163C3 6.21224 3.46234 5.52935 4.16742 5.24732L11.2205 2.42609C11.9145 2.1485 12.676 2.08674 13.4057 2.24888L27.5457 5.39111C28.3954 5.57994 29 6.33359 29 7.20403V36.7245C29 37.595 28.3954 38.3486 27.5457 38.5375L13.4057 41.6797C12.676 41.8418 11.9145 41.7801 11.2205 41.5025L4.16742 38.6813C3.46234 38.3992 3 37.7163 3 36.9569V6.97163Z" fill="white"/>
<ellipse cx="21.1073" cy="12.5" rx="4.17857" ry="6.5" fill="#101010"/>
<ellipse cx="21.1071" cy="28.75" rx="5.10714" ry="7.89286" fill="#101010"/>
<path fill-rule="evenodd" clip-rule="evenodd" d="M9.82171 12.0713C10.0781 12.0713 10.286 12.2792 10.286 12.5356V15.9016C10.286 16.1581 10.0781 16.3659 9.82171 16.3659C9.56529 16.3659 9.35742 16.1581 9.35742 15.9016V12.5356C9.35742 12.2792 9.56529 12.0713 9.82171 12.0713ZM9.82171 19.2677C10.0781 19.2677 10.286 19.4756 10.286 19.732V34.8213C10.286 35.0777 10.0781 35.2856 9.82171 35.2856C9.56529 35.2856 9.35742 35.0777 9.35742 34.8213V19.732C9.35742 19.4756 9.56529 19.2677 9.82171 19.2677Z" fill="#1E1E1E"/>
<path fill-rule="evenodd" clip-rule="evenodd" d="M31.1835 10.6975C31.5023 10.2465 32.1263 10.1394 32.5773 10.4582C33.9761 11.447 35.0706 13.1839 35.815 15.2533C36.5672 17.3447 37.0001 19.8783 37.0001 22.5919C37.0001 25.3055 36.5672 27.8391 35.815 29.9305C35.0706 31.9999 33.9761 33.7369 32.5773 34.7257C32.1263 35.0445 31.5023 34.9373 31.1835 34.4863C30.8647 34.0353 30.9719 33.4113 31.4228 33.0925C32.3545 32.434 33.26 31.1248 33.933 29.2536C34.5981 27.4045 35.0001 25.1032 35.0001 22.5919C35.0001 20.0807 34.5981 17.7793 33.933 15.9302C33.26 14.0591 32.3545 12.7499 31.4228 12.0913C30.9719 11.7725 30.8647 11.1485 31.1835 10.6975Z" fill="url(#paint0_linear_378_30066)"/>
<path fill-rule="evenodd" clip-rule="evenodd" d="M27.1999 15.9921C27.5311 15.5502 28.1579 15.4604 28.5998 15.7917C29.4116 16.4002 29.9988 17.4239 30.384 18.5593C30.7777 19.72 31.0001 21.1117 31.0001 22.5919C31.0001 24.072 30.7777 25.4637 30.384 26.6244C29.9988 27.7598 29.4116 28.7835 28.5998 29.392C28.1579 29.7233 27.5311 29.6335 27.1999 29.1916C26.8686 28.7497 26.9584 28.1229 27.4003 27.7917C27.7537 27.5268 28.1665 26.9356 28.49 25.9819C28.805 25.0534 29.0001 23.8818 29.0001 22.5919C29.0001 21.3019 28.805 20.1303 28.49 19.2018C28.1665 18.2481 27.7537 17.6569 27.4003 17.392C26.9584 17.0608 26.8686 16.434 27.1999 15.9921Z" fill="url(#paint1_linear_378_30066)"/>
<path fill-rule="evenodd" clip-rule="evenodd" d="M37.3073 6.27875C37.7057 5.8962 38.3387 5.90899 38.7212 6.30732C41.9495 9.66872 44 15.7739 44 22.5919C44 29.4099 41.9495 35.5151 38.7212 38.8765C38.3387 39.2749 37.7057 39.2876 37.3073 38.9051C36.909 38.5225 36.8962 37.8895 37.2788 37.4912C40.0285 34.628 42 29.099 42 22.5919C42 16.0848 40.0285 10.5559 37.2788 7.69268C36.8962 7.29435 36.909 6.66131 37.3073 6.27875Z" fill="url(#paint2_linear_378_30066)"/>
<defs>
<linearGradient id="paint0_linear_378_30066" x1="37.6653" y1="84.1782" x2="28.0636" y2="83.8275" gradientUnits="userSpaceOnUse">
<stop stop-color="#FFC200"/>
<stop offset="1" stop-color="#00A650"/>
</linearGradient>
<linearGradient id="paint1_linear_378_30066" x1="31.4436" y1="57.5922" x2="25.0456" y2="57.318" gradientUnits="userSpaceOnUse">
<stop stop-color="#FFC200"/>
<stop offset="1" stop-color="#00A650"/>
</linearGradient>
<linearGradient id="paint2_linear_378_30066" x1="44.7761" y1="105.552" x2="33.5706" y2="105.197" gradientUnits="userSpaceOnUse">
<stop stop-color="#FFC200"/>
<stop offset="1" stop-color="#00A650"/>
</linearGradient>
</defs>
</svg>
