<svg width="31" height="31" viewBox="0 0 31 31" fill="none" xmlns="http://www.w3.org/2000/svg">
<g clip-path="url(#clip0_378_30196)">
<path d="M29.4215 8.50839C29.0944 7.27709 28.1306 6.30735 26.9068 5.97825C24.6886 5.38025 15.7941 5.38025 15.7941 5.38025C15.7941 5.38025 6.89955 5.38025 4.68134 5.97825C3.45757 6.3074 2.49375 7.27709 2.16662 8.50839C1.57227 10.7402 1.57227 15.3967 1.57227 15.3967C1.57227 15.3967 1.57227 20.0532 2.16662 22.285C2.49375 23.5163 3.45757 24.4456 4.68134 24.7747C6.89955 25.3727 15.7941 25.3727 15.7941 25.3727C15.7941 25.3727 24.6886 25.3727 26.9068 24.7747C28.1306 24.4456 29.0944 23.5163 29.4215 22.285C30.0159 20.0532 30.0159 15.3967 30.0159 15.3967C30.0159 15.3967 30.0159 10.7402 29.4215 8.50839ZM12.885 19.6244V11.169L20.3191 15.3968L12.885 19.6244Z" fill="white"/>
</g>
<defs>
<clipPath id="clip0_378_30196">
<rect width="29.9991" height="29.9887" fill="white" transform="translate(0.794922 0.382202)"/>
</clipPath>
</defs>
</svg>
