<svg width="62" height="66" viewBox="0 0 62 66" fill="none" xmlns="http://www.w3.org/2000/svg">
<path fill-rule="evenodd" clip-rule="evenodd" d="M15.0175 17.7741C16.8603 19.895 19.2014 21.6914 20.8465 22.827C27.6918 27.5594 30.63 33.5382 31.7491 38.2844C32.113 39.8434 32.2276 41.4796 32.2533 42.6963C32.2672 43.3116 32.2593 43.8319 32.2474 44.2039C32.2415 44.3898 32.2356 44.5382 32.2296 44.6411C32.2296 44.6767 32.2257 44.7084 32.2237 44.7321C32.2237 44.74 32.2237 44.7479 32.2237 44.7559V65.6579H29.2163V44.655L29.2202 44.6035V44.5996V44.5778C29.2202 44.558 29.2242 44.5264 29.2262 44.4828C29.2301 44.3978 29.236 44.2711 29.242 44.1069C29.2519 43.7805 29.2598 43.3116 29.2459 42.7616C29.2202 41.6458 29.1174 40.2431 28.8188 38.9709C27.846 34.842 25.2815 29.5497 19.1362 25.3C17.4061 24.105 14.8297 22.1424 12.7456 19.7446C10.7031 17.3922 8.88403 14.3356 9.24785 11.0039L12.2375 11.3303C12.014 13.378 13.1312 15.6018 15.0155 17.7701L15.0175 17.7741Z" fill="url(#paint0_linear_571_779)"/>
<path fill-rule="evenodd" clip-rule="evenodd" d="M3.05665 42.4846C3.05665 42.4846 3.05665 42.4846 2.37647 41.1432C1.92302 40.249 1.69629 39.8019 1.69629 39.8019H1.70024L1.71211 39.7939C1.72199 39.79 1.73386 39.7821 1.75165 39.7742C1.78527 39.7564 1.8347 39.7326 1.89797 39.7029C2.02254 39.6416 2.20445 39.5546 2.43579 39.4477C2.89847 39.234 3.55887 38.9393 4.37153 38.6128C5.98893 37.958 8.22325 37.1587 10.6612 36.5988C13.0853 36.0409 15.7982 35.6986 18.3429 36.025C20.9015 36.3535 23.3869 37.3743 25.1506 39.6238C25.1566 39.6317 25.1645 39.6396 25.1704 39.6475C25.1921 39.6752 25.2159 39.7069 25.2436 39.7445C25.2989 39.8197 25.3642 39.9186 25.4393 40.0432C25.5876 40.2925 25.7675 40.6387 25.9494 41.1037C26.3133 42.0335 26.6791 43.4204 26.8254 45.4048C27.12 49.3636 26.5466 55.7242 23.3177 65.6599H20.1699L20.4586 64.728C23.6123 55.0298 24.0849 49.0747 23.8278 45.6263C23.6993 43.9071 23.3909 42.819 23.1496 42.1977C23.029 41.8871 22.9222 41.6913 22.861 41.5904C22.8372 41.5488 22.8194 41.5231 22.8115 41.5112L22.7937 41.4895C21.6528 40.0294 19.9919 39.2677 17.9613 39.0065C15.9089 38.7434 13.5856 39.0105 11.3355 39.5288C9.10115 40.0432 7.02502 40.7832 5.49857 41.4004C4.7393 41.7071 4.1224 41.9821 3.69728 42.1779C3.48572 42.2769 3.3216 42.354 3.21285 42.4074C3.15749 42.4332 3.11794 42.4549 3.09224 42.4668C3.0784 42.4727 3.07049 42.4787 3.06456 42.4806L3.05863 42.4846H3.05665Z" fill="url(#paint1_linear_571_779)"/>
<path d="M13.8789 33.0261C15.8226 33.0261 17.3984 31.4493 17.3984 29.5045C17.3984 27.5597 15.8226 25.9849 13.8789 25.9849C11.9353 25.9849 10.3594 27.5617 10.3594 29.5045C10.3594 31.4473 11.9353 33.0261 13.8789 33.0261Z" fill="url(#paint2_linear_571_779)"/>
<path d="M30.7207 26.1272C32.6643 26.1272 34.2402 24.5504 34.2402 22.6056C34.2402 20.6608 32.6643 19.084 30.7207 19.084C28.777 19.084 27.2031 20.6608 27.2031 22.6056C27.2031 24.5504 28.779 26.1272 30.7207 26.1272Z" fill="url(#paint3_linear_571_779)"/>
<path fill-rule="evenodd" clip-rule="evenodd" d="M48.6938 19.7485C46.6097 22.1463 44.0333 24.1089 42.3032 25.3039C36.1579 29.5536 33.5934 34.8439 32.6206 38.9748C32.324 40.245 32.2192 41.6497 32.1935 42.7655C32.1816 43.3175 32.1875 43.7844 32.1974 44.1108C32.2034 44.275 32.2073 44.4016 32.2132 44.4867C32.2152 44.5283 32.2172 44.5619 32.2192 44.5817V44.6034V44.6074L32.2231 44.6588V65.6618H29.2157V44.7597C29.2157 44.732 29.2117 44.6925 29.2098 44.645C29.2038 44.5401 29.1979 44.3917 29.192 44.2078C29.1801 43.8378 29.1722 43.3155 29.186 42.7002C29.2137 41.4854 29.3264 39.8493 29.6922 38.2903C30.8094 33.5421 33.7476 27.5633 40.5949 22.8309C42.24 21.6933 44.581 19.8988 46.4239 17.776C48.3062 15.6076 49.4253 13.3839 49.2019 11.3362L52.1915 11.0098C52.5554 14.3395 50.7363 17.3981 48.6938 19.7505V19.7485Z" fill="url(#paint4_linear_571_779)"/>
<path fill-rule="evenodd" clip-rule="evenodd" d="M59.745 39.7999C59.745 39.7999 59.745 39.7999 59.0648 41.1413C58.6114 42.0355 58.3847 42.4826 58.3847 42.4826L58.3787 42.4787C58.3728 42.4767 58.3629 42.4708 58.351 42.4648C58.3253 42.451 58.2838 42.4312 58.2304 42.4055C58.1217 42.3521 57.9576 42.2749 57.746 42.176C57.3209 41.9801 56.704 41.7051 55.9447 41.3985C54.4202 40.7812 52.3441 40.0413 50.1078 39.5269C47.8597 39.0105 45.5344 38.7414 43.482 39.0046C41.4513 39.2657 39.7904 40.0274 38.6496 41.4875L38.6318 41.5093C38.6239 41.5211 38.6061 41.5469 38.5804 41.5884C38.5191 41.6893 38.4143 41.8852 38.2917 42.1958C38.0485 42.817 37.74 43.9051 37.6135 45.6244C37.3564 49.0728 37.829 55.0259 40.9827 64.7261L41.3228 65.6579H38.1236C34.8928 55.7223 34.3213 49.3616 34.6159 45.4028C34.7642 43.4184 35.13 42.0316 35.4919 41.1017C35.6738 40.6368 35.8537 40.2906 36.002 40.0413C36.0771 39.9166 36.1424 39.8177 36.1978 39.7425C36.2254 39.7049 36.2492 39.6733 36.2709 39.6456C36.2788 39.6377 36.2847 39.6278 36.2907 39.6218C38.0544 37.3724 40.5398 36.3515 43.0984 36.0231C45.6412 35.6966 48.354 36.0389 50.7801 36.5968C53.2181 37.1567 55.4524 37.958 57.0698 38.6109C57.8805 38.9393 58.5428 39.2321 59.0055 39.4458C59.2369 39.5526 59.4188 39.6396 59.5433 39.701C59.6066 39.7307 59.6541 39.7564 59.6877 39.7722C59.7055 39.7801 59.7173 39.788 59.7272 39.792L59.7391 39.7979H59.743L59.745 39.7999Z" fill="url(#paint5_linear_571_779)"/>
<path d="M47.5556 33.0261C49.4993 33.0261 51.0752 31.4493 51.0752 29.5045C51.0752 27.5597 49.4993 25.9849 47.5556 25.9849C45.612 25.9849 44.0381 27.5617 44.0381 29.5045C44.0381 31.4473 45.614 33.0261 47.5556 33.0261Z" fill="url(#paint6_linear_571_779)"/>
<path d="M13.3225 41.5708C12.0215 42.3087 11.2108 43.5571 10.9834 44.9262C12.2686 45.4386 13.7654 45.3773 15.0665 44.6472C16.3675 43.9093 17.1782 42.6609 17.4056 41.2918C16.1124 40.7794 14.6156 40.8328 13.3225 41.5708Z" fill="url(#paint7_linear_571_779)"/>
<path d="M19.0961 7.71806C18.675 6.28964 17.6369 5.21337 16.3517 4.6792C15.5687 5.81482 15.284 7.28874 15.7051 8.71915C16.1263 10.1476 17.1643 11.2238 18.4496 11.758C19.2306 10.6145 19.5173 9.14846 19.0961 7.71806Z" fill="url(#paint8_linear_571_779)"/>
<path d="M27.6539 12.3237C27.4878 10.8418 26.6455 9.60134 25.4808 8.85547C24.512 9.84072 23.9762 11.2395 24.1422 12.7213C24.3083 14.2032 25.1506 15.4456 26.3153 16.1895C27.292 15.2042 27.8259 13.8055 27.6539 12.3237Z" fill="url(#paint9_linear_571_779)"/>
<path d="M32.443 3.6403C32.4054 2.15055 31.6837 0.840831 30.5864 0C29.5345 0.894249 28.88 2.24156 28.9176 3.73923C28.9551 5.22898 29.6847 6.5387 30.7821 7.37953C31.834 6.47737 32.4885 5.13006 32.443 3.6403Z" fill="url(#paint10_linear_571_779)"/>
<path d="M3.69947 34.3355C2.21058 34.3513 0.871975 33.6668 0 32.5985C0.858134 31.5163 2.18092 30.8159 3.66981 30.8001C5.15869 30.7842 6.4973 31.4708 7.36927 32.5371C6.51114 33.6213 5.18835 34.3197 3.69947 34.3355Z" fill="url(#paint11_linear_571_779)"/>
<path d="M5.72216 22.0414C4.49625 21.1986 3.79037 19.875 3.68359 18.4981C5.00639 18.1063 6.49527 18.2864 7.72117 19.1292C8.94708 19.972 9.65296 21.2956 9.75776 22.6725C8.43497 23.0722 6.94608 22.8902 5.72018 22.0414H5.72216Z" fill="url(#paint12_linear_571_779)"/>
<path d="M48.0362 41.5708C49.3372 42.3087 50.1479 43.5571 50.3753 44.9262C49.0901 45.4386 47.5933 45.3773 46.2922 44.6472C44.9912 43.9093 44.1805 42.6609 43.9531 41.2918C45.2463 40.7794 46.743 40.8328 48.0362 41.5708Z" fill="url(#paint13_linear_571_779)"/>
<path d="M42.2684 7.71806C42.6896 6.28964 43.7276 5.21337 45.0129 4.6792C45.7959 5.81482 46.0806 7.28874 45.6594 8.71915C45.2383 10.1476 44.2002 11.2238 42.915 11.758C42.126 10.6145 41.8393 9.14846 42.2684 7.71806Z" fill="url(#paint14_linear_571_779)"/>
<path d="M33.7048 12.3237C33.8709 10.8418 34.7132 9.60134 35.8778 8.85547C36.8467 9.84072 37.3805 11.2395 37.2164 12.7213C37.0503 14.2032 36.208 15.4456 35.0434 16.1895C34.0666 15.2042 33.5328 13.8055 33.7048 12.3237Z" fill="url(#paint15_linear_571_779)"/>
<path d="M28.9156 3.6403C28.9532 2.15055 29.6828 0.840831 30.7802 0C31.8321 0.894249 32.4865 2.24156 32.449 3.73923C32.4114 5.22898 31.6818 6.5387 30.5844 7.37953C29.5325 6.47737 28.878 5.13006 28.9156 3.6403Z" fill="url(#paint16_linear_571_779)"/>
<path d="M57.6669 34.3355C59.1558 34.3513 60.4944 33.6668 61.3663 32.5985C60.5082 31.5163 59.1854 30.8159 57.6965 30.8001C56.2077 30.7842 54.869 31.4708 53.9971 32.5371C54.8473 33.6213 56.1701 34.3197 57.6669 34.3355Z" fill="url(#paint17_linear_571_779)"/>
<path d="M55.6362 22.0414C56.8621 21.1986 57.568 19.875 57.6728 18.4981C56.35 18.1063 54.8611 18.2864 53.6352 19.1292C52.4093 19.972 51.7035 21.2956 51.5967 22.6725C52.9274 23.0722 54.4083 22.8902 55.6343 22.0414H55.6362Z" fill="url(#paint18_linear_571_779)"/>
<defs>
<linearGradient id="paint0_linear_571_779" x1="3.2073" y1="79.4911" x2="36.0625" y2="2.44528" gradientUnits="userSpaceOnUse">
<stop stop-color="#FFC200"/>
<stop offset="1" stop-color="#00A650"/>
</linearGradient>
<linearGradient id="paint1_linear_571_779" x1="1.42936" y1="78.7333" x2="34.2846" y2="1.68752" gradientUnits="userSpaceOnUse">
<stop stop-color="#FFC200"/>
<stop offset="1" stop-color="#00A650"/>
</linearGradient>
<linearGradient id="paint2_linear_571_779" x1="-5.77907" y1="75.6592" x2="27.0761" y2="-1.38661" gradientUnits="userSpaceOnUse">
<stop stop-color="#FFC200"/>
<stop offset="1" stop-color="#00A650"/>
</linearGradient>
<linearGradient id="paint3_linear_571_779" x1="5.98706" y1="80.6763" x2="38.8423" y2="3.63055" gradientUnits="userSpaceOnUse">
<stop stop-color="#FFC200"/>
<stop offset="1" stop-color="#00A650"/>
</linearGradient>
<linearGradient id="paint4_linear_571_779" x1="16.6087" y1="85.2067" x2="49.4639" y2="8.16088" gradientUnits="userSpaceOnUse">
<stop stop-color="#FFC200"/>
<stop offset="1" stop-color="#00A650"/>
</linearGradient>
<linearGradient id="paint5_linear_571_779" x1="26.7187" y1="89.5178" x2="59.5739" y2="12.472" gradientUnits="userSpaceOnUse">
<stop stop-color="#FFC200"/>
<stop offset="1" stop-color="#00A650"/>
</linearGradient>
<linearGradient id="paint6_linear_571_779" x1="22.7192" y1="87.8126" x2="55.5744" y2="10.7669" gradientUnits="userSpaceOnUse">
<stop stop-color="#FFC200"/>
<stop offset="1" stop-color="#00A650"/>
</linearGradient>
<linearGradient id="paint7_linear_571_779" x1="-0.609316" y1="77.865" x2="32.2459" y2="0.819213" gradientUnits="userSpaceOnUse">
<stop stop-color="#FFC200"/>
<stop offset="1" stop-color="#00A650"/>
</linearGradient>
<linearGradient id="paint8_linear_571_779" x1="-10.4719" y1="73.659" x2="22.3833" y2="-3.3868" gradientUnits="userSpaceOnUse">
<stop stop-color="#FFC200"/>
<stop offset="1" stop-color="#00A650"/>
</linearGradient>
<linearGradient id="paint9_linear_571_779" x1="-1.72832" y1="77.3862" x2="31.1269" y2="0.340368" gradientUnits="userSpaceOnUse">
<stop stop-color="#FFC200"/>
<stop offset="1" stop-color="#00A650"/>
</linearGradient>
<linearGradient id="paint10_linear_571_779" x1="-0.866015" y1="77.7541" x2="31.9892" y2="0.70832" gradientUnits="userSpaceOnUse">
<stop stop-color="#FFC200"/>
<stop offset="1" stop-color="#00A650"/>
</linearGradient>
<linearGradient id="paint11_linear_571_779" x1="-13.303" y1="72.4499" x2="19.5522" y2="-4.59591" gradientUnits="userSpaceOnUse">
<stop stop-color="#FFC200"/>
<stop offset="1" stop-color="#00A650"/>
</linearGradient>
<linearGradient id="paint12_linear_571_779" x1="-15.051" y1="71.7058" x2="17.8042" y2="-5.33995" gradientUnits="userSpaceOnUse">
<stop stop-color="#FFC200"/>
<stop offset="1" stop-color="#00A650"/>
</linearGradient>
<linearGradient id="paint13_linear_571_779" x1="27.2927" y1="89.7633" x2="60.1479" y2="12.7175" gradientUnits="userSpaceOnUse">
<stop stop-color="#FFC200"/>
<stop offset="1" stop-color="#00A650"/>
</linearGradient>
<linearGradient id="paint14_linear_571_779" x1="12.0083" y1="83.2445" x2="44.8636" y2="6.19868" gradientUnits="userSpaceOnUse">
<stop stop-color="#FFC200"/>
<stop offset="1" stop-color="#00A650"/>
</linearGradient>
<linearGradient id="paint15_linear_571_779" x1="6.36315" y1="80.8365" x2="39.2184" y2="3.79075" gradientUnits="userSpaceOnUse">
<stop stop-color="#FFC200"/>
<stop offset="1" stop-color="#00A650"/>
</linearGradient>
<linearGradient id="paint16_linear_571_779" x1="-0.864005" y1="77.7561" x2="31.9912" y2="0.710306" gradientUnits="userSpaceOnUse">
<stop stop-color="#FFC200"/>
<stop offset="1" stop-color="#00A650"/>
</linearGradient>
<linearGradient id="paint17_linear_571_779" x1="32.3935" y1="91.9374" x2="65.2487" y2="14.8916" gradientUnits="userSpaceOnUse">
<stop stop-color="#FFC200"/>
<stop offset="1" stop-color="#00A650"/>
</linearGradient>
<linearGradient id="paint18_linear_571_779" x1="25.4988" y1="88.9973" x2="58.354" y2="11.9515" gradientUnits="userSpaceOnUse">
<stop stop-color="#FFC200"/>
<stop offset="1" stop-color="#00A650"/>
</linearGradient>
</defs>
</svg>
